<svg id="Capa_1" data-name="Capa 1" xmlns="http://www.w3.org/2000/svg" viewBox="0 0 529.25 146.08"><defs><style>.cls-1{fill:#fff;}</style></defs><title>Logo COMPLETO BLANCO - Sin fondo</title><path class="cls-1" d="M501.93,145.78a1.3,1.3,0,0,1,.11-.61,2.91,2.91,0,0,1,.35-.62,3.92,3.92,0,0,1,.43-.46q.21-.18.33-.15a.25.25,0,0,1,.15.18.7.7,0,0,1,0,.33c0,.12-.05.26-.09.41a2.61,2.61,0,0,1-.16.42,1.38,1.38,0,0,1-.41.61.66.66,0,0,0,0,.41.29.29,0,0,0,.32.19,3.1,3.1,0,0,0,1.24-.35c.42-.22.82-.4,1.19-.55l-.09.16-.19.33-.22.35a1.58,1.58,0,0,0-.12.2,2.46,2.46,0,0,1-.54.36,5.1,5.1,0,0,1-.82.31,1.63,1.63,0,0,1-.82,0,.69.69,0,0,1-.5-.56c-.34.67-.68,1.32-1,1.95a10.25,10.25,0,0,1-1.19,1.76,6.47,6.47,0,0,1-.47.5,6,6,0,0,1-.62.53,2.51,2.51,0,0,1-.68.33.82.82,0,0,1-.62,0,.58.58,0,0,1-.31-.53,2.68,2.68,0,0,1,.08-.9,7.62,7.62,0,0,1,.34-1.1c.14-.39.3-.76.45-1.11s.31-.65.45-.91l.27-.55c.31-.61.61-1.2.91-1.77l.91-1.73c.55-1,1.08-2,1.6-3A27.12,27.12,0,0,1,504,137.3l.18-.24a1.11,1.11,0,0,1,.19-.22,1.4,1.4,0,0,1,.61-.42c.2-.06.3,0,.3.13a2.93,2.93,0,0,1-.23.55l-.42.88c-.16.3-.3.59-.44.85s-.23.43-.27.48c-.56,1-1.13,1.93-1.71,2.9s-1.18,1.95-1.77,2.95c-.39.72-.78,1.44-1.15,2.14a18.18,18.18,0,0,0-1,2.24c-.25.74-.33,1.17-.22,1.31s.36,0,.78-.3a6.91,6.91,0,0,0,.94-1.09c.33-.47.64-1,.93-1.45s.55-.95.77-1.37S501.87,145.93,501.93,145.78Z" transform="translate(-96.79 -14.48)"/><path class="cls-1" d="M502.82,148.68a17.47,17.47,0,0,1,1.3-2,15.37,15.37,0,0,1,1.62-1.89s.09,0,.24,0h.46a2,2,0,0,1,.38,0c.1,0,.1,0,0,0a10.16,10.16,0,0,0-.93.93c-.33.37-.64.75-.94,1.14s-.55.75-.78,1.09l-.48.74-.3.57a4.07,4.07,0,0,0-.27.56,2.28,2.28,0,0,0-.17.5.72.72,0,0,0,0,.36c.06.15.23.11.52-.11a9.16,9.16,0,0,0,1-1c.4-.42.83-.89,1.29-1.42s.89-1,1.29-1.51.74-.9,1-1.26a6.57,6.57,0,0,1,.5-.61h.92l-.63.79-.87,1.11L507,148l-1,1.23q-.19.28-.39.63c-.13.22-.26.44-.38.66l-.34.64q-.17.31-.3.54a.15.15,0,0,0,0,.06l2.29-1.7c.74-.56,1.38-1.08,1.93-1.57l.1.93c-.18.16-.4.33-.65.53l-.85.63-1,.7c-.35.24-.69.5-1,.77s-.58.47-.86.68-.55.42-.8.63l-.78,1.57c-.25.51-.53,1-.83,1.5a13.74,13.74,0,0,1-1,1.41,9.41,9.41,0,0,1-1.19,1.26,3.46,3.46,0,0,1-.58.43,1,1,0,0,1-.5.16.44.44,0,0,1-.35-.24,1.76,1.76,0,0,1-.13-.76,2.46,2.46,0,0,1,.22-.94c.15-.32.29-.61.42-.85a4.72,4.72,0,0,1,.67-1,12,12,0,0,1,1-1c.38-.36.79-.71,1.24-1.07l1.39-1.1.79-1.41,0-.08-.46.32a2.54,2.54,0,0,1-.53.25,1.32,1.32,0,0,1-.51.06.54.54,0,0,1-.39-.26,1.59,1.59,0,0,1-.1-1.21A6.49,6.49,0,0,1,502.82,148.68Zm-1.54,7.59.54-.94c.17-.32.35-.63.52-.94-.47.39-.91.8-1.34,1.23a12.59,12.59,0,0,0-1.27,1.52,4.59,4.59,0,0,0-.31.57,4.67,4.67,0,0,0-.23.64c0,.18,0,.26.09.23a1,1,0,0,0,.35-.25,4.8,4.8,0,0,0,.49-.55c.18-.22.36-.44.52-.65s.32-.4.43-.56S501.26,156.31,501.28,156.27Z" transform="translate(-96.79 -14.48)"/><path class="cls-1" d="M539.2,142.71c-.52.69-1,1.41-1.56,2.15s-1,1.5-1.5,2.29-.91,1.6-1.31,2.43a18.52,18.52,0,0,0-1,2.59,13.8,13.8,0,0,0-.37,1.6,5.27,5.27,0,0,0,0,1.58,3,3,0,0,0,.52,1.32,2.41,2.41,0,0,0,1.31.85l-1.48,0a1.49,1.49,0,0,1-.88-.77,3.41,3.41,0,0,1-.35-1.26,6.67,6.67,0,0,1,0-1.41,9.26,9.26,0,0,1,.21-1.25,16.94,16.94,0,0,1,1-2.94,28.23,28.23,0,0,1,1.43-2.79q.79-1.37,1.68-2.64c.59-.85,1.18-1.66,1.76-2.45l1.39-1.89q.69-.93,1.38-1.89a1.85,1.85,0,0,0,.42-.74c0-.14,0-.22-.14-.24a.81.81,0,0,0-.43.07l-.49.19c-.31.14-.62.3-.92.46l-.88.53c-.37.22-.74.44-1.1.68s-.72.49-1.07.75l-1.25.92c-.41.31-.82.63-1.23,1-.92.72-1.83,1.47-2.74,2.26s-1.79,1.58-2.64,2.39c-.61.57-1.21,1.17-1.79,1.81s-1.16,1.29-1.74,1.95-1.16,1.32-1.74,2-1.17,1.24-1.77,1.8a3.34,3.34,0,0,1-1.36.91.38.38,0,0,1-.5-.36,3,3,0,0,1,.23-1.26,10.37,10.37,0,0,1,.84-1.78c.47-.82,1-1.67,1.64-2.55s1.31-1.8,2-2.73,1.51-1.87,2.31-2.84,1.62-1.93,2.45-2.9l2.45-2.9c.81-1,1.58-1.9,2.31-2.83.41-.5.57-.85.5-1s-.38-.33-.94-.44a12.19,12.19,0,0,0-2.21-.15,17.68,17.68,0,0,0-2.3.18c-.77.11-1.52.25-2.25.41s-1.42.32-2.05.49a29.22,29.22,0,0,0-3.7,1.34,25.92,25.92,0,0,0-3.51,1.9,10.26,10.26,0,0,0-1.07.7,7.37,7.37,0,0,0-1,.91,6,6,0,0,0-.84,1.1,4.1,4.1,0,0,0-.52,1.25,3.7,3.7,0,0,0,0,1.37,4,4,0,0,0,.56,1.47l-1.32-1.16a4,4,0,0,1,0-2.16,5.84,5.84,0,0,1,.92-1.79,8.79,8.79,0,0,1,1.42-1.44,18.08,18.08,0,0,1,1.55-1.1,25.06,25.06,0,0,1,3.56-1.88,31.68,31.68,0,0,1,4.28-1.5c.73-.19,1.45-.37,2.15-.53a18.94,18.94,0,0,1,2.13-.36,16,16,0,0,1,4.63.1c.84.13,1.33.43,1.46.9s-.1,1.08-.7,1.84l-1.6,2.05q-.78,1-1.62,2c-.85,1-1.72,2.07-2.61,3.08s-1.76,2-2.62,3.08-1.69,2.11-2.5,3.21a39.42,39.42,0,0,0-2.28,3.44l-.39.69c-.11.22-.19.4-.24.53s-.06.21,0,.23.12,0,.26-.2c.5-.54,1-1.12,1.57-1.74l1.7-1.91c.59-.66,1.2-1.32,1.83-2s1.3-1.33,2-2c1.28-1.18,2.57-2.33,3.88-3.43s2.65-2.14,4-3.13l.79-.55,1.19-.75c.42-.26.83-.5,1.23-.73s.73-.4,1-.5a3.64,3.64,0,0,1,1.06-.33,1.76,1.76,0,0,1,.78.05.77.77,0,0,1,.46.4.94.94,0,0,1,0,.69,2,2,0,0,1-.18.44,3,3,0,0,1-.27.47c-.09.15-.18.28-.26.4l-.16.23c-.46.63-.92,1.26-1.39,1.88Z" transform="translate(-96.79 -14.48)"/><path class="cls-1" d="M543,144.64a.73.73,0,0,1,.51.47,1.63,1.63,0,0,1,0,.79,4.68,4.68,0,0,1-.37,1c-.18.35-.37.69-.57,1a7,7,0,0,1-.94,1.24c0,.14,0,.27,0,.38a.53.53,0,0,0,.07.25.17.17,0,0,0,.18.07.67.67,0,0,0,.32-.12c.31-.22.62-.46.92-.71l.67-.57.08.85-.77.65a7.32,7.32,0,0,1-1,.74.68.68,0,0,1-.78.08,1.53,1.53,0,0,1-.52-.75c-.27.26-.58.53-.92.81a6.52,6.52,0,0,1-1,.7,2.34,2.34,0,0,1-.92.33.63.63,0,0,1-.65-.33,1.33,1.33,0,0,1-.15-.91,4.51,4.51,0,0,1,.34-1.22,9,9,0,0,1,.73-1.35,10.71,10.71,0,0,1,1-1.31,9.84,9.84,0,0,1,1-1,7.86,7.86,0,0,1,1-.73,4.07,4.07,0,0,1,1-.4A1.53,1.53,0,0,1,543,144.64Zm-1.36,2.41a1.9,1.9,0,0,1,.11.68,8.07,8.07,0,0,0,.45-.72c.13-.21.23-.4.31-.56a1.84,1.84,0,0,0,.21-.71.35.35,0,0,0-.14-.33.56.56,0,0,0-.39,0,3,3,0,0,0-.54.24,6.91,6.91,0,0,0-1.75,1.45,14,14,0,0,0-1.5,2.11,5.82,5.82,0,0,0-.5,1.11c-.1.34-.08.54.08.61a.78.78,0,0,0,.46,0,2.83,2.83,0,0,0,.61-.35,8,8,0,0,0,.72-.58,10.4,10.4,0,0,0,.75-.74,3.36,3.36,0,0,1,0-1.18,3.08,3.08,0,0,1,.27-.91c.13-.23.27-.37.43-.4S541.49,146.78,541.62,147.05Z" transform="translate(-96.79 -14.48)"/><path class="cls-1" d="M544.08,149.35a3.11,3.11,0,0,0-.22.86.89.89,0,0,0,.12.63.48.48,0,0,0,.46.14,2.58,2.58,0,0,0,.67-.14,6,6,0,0,0,.82-.44c.29-.17.57-.36.86-.57l.85-.67.8-.68.15.78-1,.86a12.37,12.37,0,0,1-1.28,1,6,6,0,0,1-1.35.69,1.56,1.56,0,0,1-1.22,0,1,1,0,0,1-.61-.9,4.33,4.33,0,0,1,.15-1.59,7.92,7.92,0,0,1,.5-1.29,9.32,9.32,0,0,1,.84-1.46,7.25,7.25,0,0,1,1.08-1.25,2.81,2.81,0,0,1,1.24-.69.81.81,0,0,1,1,.54,1.53,1.53,0,0,1,.05.65,1.56,1.56,0,0,1-.25.64,4.49,4.49,0,0,1-.68.76c-.29.27-.6.54-.94.8s-.69.51-1.05.74S544.37,149.18,544.08,149.35Zm.9-1.85-.16.29c-.06.09-.11.18-.17.29.25-.14.52-.31.8-.5a6.05,6.05,0,0,0,.84-.66,5.33,5.33,0,0,0,.66-.72,1.24,1.24,0,0,0,.28-.67c0-.11,0-.16-.16-.17a.92.92,0,0,0-.48.21,3.9,3.9,0,0,0-.43.36c-.31.35-.56.64-.72.86S545.12,147.25,545,147.5Z" transform="translate(-96.79 -14.48)"/><path class="cls-1" d="M549.82,151.23a7.24,7.24,0,0,1-.91.54.93.93,0,0,1-.83,0,.6.6,0,0,1-.31-.53,3.33,3.33,0,0,1,.08-.9,7.62,7.62,0,0,1,.34-1.1c.15-.39.3-.76.46-1.11s.3-.65.44-.91.23-.45.27-.55c.31-.61.61-1.2.91-1.77l.91-1.73c.55-1,1.08-2,1.6-3a25.67,25.67,0,0,1,1.77-2.91l.17-.24a1.11,1.11,0,0,1,.19-.22,1.46,1.46,0,0,1,.61-.42c.21-.06.31,0,.31.13a3.89,3.89,0,0,1-.23.55l-.43.88c-.15.3-.3.59-.44.85s-.23.43-.26.48c-.56,1-1.13,1.93-1.72,2.9s-1.17,1.95-1.76,2.95c-.4.72-.78,1.44-1.16,2.14a19.81,19.81,0,0,0-1,2.24c-.25.74-.32,1.18-.21,1.34s.37.06.8-.27a7.47,7.47,0,0,0,.62-.45c.26-.19.51-.4.78-.62l.74-.62.55-.48.07.85c-.11.11-.26.23-.44.38l-.59.48-.66.54Z" transform="translate(-96.79 -14.48)"/><path class="cls-1" d="M552.59,150.55c.16-.1.35-.25.6-.44l.75-.59.75-.61.56-.47.09.85c-.18.15-.4.34-.65.57l-.82.73c-.28.24-.56.47-.83.67a3.26,3.26,0,0,1-.71.43.77.77,0,0,1-.54.06.62.62,0,0,1-.33-.31,1.41,1.41,0,0,1-.12-.57,2.39,2.39,0,0,1,.09-.73,9.72,9.72,0,0,1,.56-1.55c.24-.54.5-1.05.78-1.55s.56-1,.84-1.39l.74-1.09a2,2,0,0,1,.48,0,2.41,2.41,0,0,0,.47,0,7,7,0,0,0-.69.9c-.29.44-.6.94-.92,1.5s-.61,1.11-.87,1.68a6.89,6.89,0,0,0-.55,1.48.8.8,0,0,0,0,.48C552.29,150.69,552.41,150.68,552.59,150.55Zm2.78-8.69a1.15,1.15,0,0,1,.27-.77.81.81,0,0,1,1.3,0,1.19,1.19,0,0,1,0,1.53.82.82,0,0,1-1.3,0A1.14,1.14,0,0,1,555.37,141.86Z" transform="translate(-96.79 -14.48)"/><path class="cls-1" d="M560.69,144.83a.52.52,0,0,1,.17.29,1.54,1.54,0,0,1,0,.43,2.14,2.14,0,0,1-.17.48,2.56,2.56,0,0,1-.33.48,2.3,2.3,0,0,1-.39.05h-.4a2.06,2.06,0,0,0,.33-.58.6.6,0,0,0,0-.42.32.32,0,0,0-.32-.16,1.39,1.39,0,0,0-.63.23l-.5.31-.46.35a7.31,7.31,0,0,0-.64.6c-.21.21-.42.42-.64.66-.07.09-.21.27-.41.56s-.4.59-.6.92a6.36,6.36,0,0,0-.45,1c-.11.31-.11.53,0,.67a.25.25,0,0,0,.31.06,1.52,1.52,0,0,0,.48-.28,7.24,7.24,0,0,0,.58-.49c.2-.19.41-.39.6-.6a7.66,7.66,0,0,0,.59-.66c.2-.23.39-.45.56-.67l.49-.62.37-.5.85.06c-.16.18-.31.38-.47.59s-.33.45-.52.68-.31.52-.49.86-.31.65-.42.92a1.57,1.57,0,0,0-.13.6c0,.13.15.1.39-.08l.57-.46c.24-.2.49-.4.76-.6l.75-.59c.24-.19.43-.34.56-.46l.08.85c-.16.15-.39.34-.67.57s-.58.48-.9.72-.61.46-.91.67a3.81,3.81,0,0,1-.75.44.7.7,0,0,1-.52.08.42.42,0,0,1-.21-.3,1.65,1.65,0,0,1,0-.54,5.13,5.13,0,0,1,.16-.65c-.12.11-.23.23-.34.34a3,3,0,0,1-.32.3l-.41.32a3.28,3.28,0,0,1-.62.37,1.75,1.75,0,0,1-.63.17.56.56,0,0,1-.49-.26,1.39,1.39,0,0,1-.14-.91,4.51,4.51,0,0,1,.34-1.22,9,9,0,0,1,.73-1.35,10.71,10.71,0,0,1,1-1.31,10,10,0,0,1,1.11-1.06,7,7,0,0,1,1.14-.75,2.89,2.89,0,0,1,1.07-.32A1.3,1.3,0,0,1,560.69,144.83Z" transform="translate(-96.79 -14.48)"/><path class="cls-1" d="M580.16,138.25a5.65,5.65,0,0,0,1.1-.46,10.34,10.34,0,0,0,1.21-.74,11.15,11.15,0,0,0,1.13-.9,6.2,6.2,0,0,0,.88-.92A1.87,1.87,0,0,0,585,134a1.35,1.35,0,0,0-.45-.91,2.92,2.92,0,0,0-1.06-.6,6.1,6.1,0,0,0-1.33-.3,9,9,0,0,0-1.93,0,13.93,13.93,0,0,0-2.12.42,19.15,19.15,0,0,0-2.18.72c-.74.29-1.45.6-2.14.95s-1.34.7-1.95,1.08a16.14,16.14,0,0,0-1.64,1.15,20.1,20.1,0,0,0-1.56,1.32,11.94,11.94,0,0,0-1.26,1.36,5,5,0,0,0-.76,1.34,1.91,1.91,0,0,0,0,1.27,2.35,2.35,0,0,0,.92,1.12,6.73,6.73,0,0,0,2.07.93l1.5.45c.53.16,1.06.35,1.58.56a14.07,14.07,0,0,1,1.52.72,7.12,7.12,0,0,1,1.33.95,4.24,4.24,0,0,1,1.15,1.53,2.93,2.93,0,0,1,.18,1.48,3.82,3.82,0,0,1-.58,1.46,11.51,11.51,0,0,1-1.11,1.46,15.39,15.39,0,0,1-1.15,1.13,14.47,14.47,0,0,1-1.31,1,10.15,10.15,0,0,1-1.41.85,8.15,8.15,0,0,1-1.47.58,6.06,6.06,0,0,1-1.66.27,4.73,4.73,0,0,1-1.5-.17,2.58,2.58,0,0,1-1.08-.6,1.39,1.39,0,0,1-.43-1,1.89,1.89,0,0,1,.28-1.05,4.62,4.62,0,0,1,.82-1,8.08,8.08,0,0,1,1.14-.9,11.25,11.25,0,0,1,1.3-.73,9.66,9.66,0,0,1,1.28-.53,6.32,6.32,0,0,1,1.08-.29l1.69.46c-.19,0-.49.14-.9.28s-.85.3-1.34.5-1,.43-1.5.68a12.08,12.08,0,0,0-1.39.79,4.91,4.91,0,0,0-1,.85,1.07,1.07,0,0,0-.3.84.83.83,0,0,0,.41.54,2.3,2.3,0,0,0,.85.29,4,4,0,0,0,1.1,0,4.4,4.4,0,0,0,1.17-.31,12.52,12.52,0,0,0,2.5-1.37,13.18,13.18,0,0,0,2.16-1.89,7.55,7.55,0,0,0,1.14-1.57,2.23,2.23,0,0,0,.26-1.34,2.34,2.34,0,0,0-.67-1.22,6.51,6.51,0,0,0-1.65-1.17,10.47,10.47,0,0,0-2.08-.85c-.7-.2-1.42-.43-2.15-.69l-1.09-.37a5.78,5.78,0,0,1-1.06-.44,3.61,3.61,0,0,1-1.52-1.4,2.58,2.58,0,0,1-.27-1.58,4.33,4.33,0,0,1,.62-1.62,11.4,11.4,0,0,1,1.16-1.53,14.94,14.94,0,0,1,1.32-1.32c.45-.39.83-.71,1.13-1a20.29,20.29,0,0,1,2.11-1.44,22.54,22.54,0,0,1,2.54-1.34,24.44,24.44,0,0,1,2.77-1.08,15.43,15.43,0,0,1,2.79-.62,11.19,11.19,0,0,1,2.58-.06,5.53,5.53,0,0,1,2.48.89,2.23,2.23,0,0,1,1,1.14,2.26,2.26,0,0,1,0,1.29,4,4,0,0,1-.6,1.27,6.23,6.23,0,0,1-.92,1.09,8.35,8.35,0,0,1-1.27,1c-.47.3-.94.56-1.41.8s-.94.45-1.4.63l-1.2.46Z" transform="translate(-96.79 -14.48)"/><path class="cls-1" d="M585.25,144.83a.48.48,0,0,1,.18.29,1.54,1.54,0,0,1,0,.43,1.79,1.79,0,0,1-.18.48,2.11,2.11,0,0,1-.32.48,2.44,2.44,0,0,1-.39.05h-.4a2.06,2.06,0,0,0,.33-.58.6.6,0,0,0,0-.42.33.33,0,0,0-.32-.16,1.46,1.46,0,0,0-.64.23L583,146c-.15.11-.31.22-.46.35s-.44.39-.65.6l-.63.66-.42.56c-.2.28-.4.59-.59.92a6.36,6.36,0,0,0-.45,1c-.11.31-.11.53,0,.67a.25.25,0,0,0,.31.06,1.64,1.64,0,0,0,.48-.28c.17-.13.36-.3.57-.49s.41-.39.61-.6.39-.42.59-.66l.56-.67.48-.62c.15-.19.27-.36.37-.5l.86.06c-.16.18-.31.38-.47.59s-.33.45-.52.68a8.76,8.76,0,0,0-.49.86,7.77,7.77,0,0,0-.42.92,1.4,1.4,0,0,0-.13.6c0,.13.14.1.38-.08l.58-.46.75-.6.76-.59c.24-.19.43-.34.56-.46l.08.85c-.16.15-.39.34-.67.57l-.9.72c-.31.24-.62.46-.92.67a3.79,3.79,0,0,1-.74.44.71.71,0,0,1-.52.08.37.37,0,0,1-.21-.3,1.41,1.41,0,0,1,0-.54,5.13,5.13,0,0,1,.16-.65c-.12.11-.23.23-.34.34a3,3,0,0,1-.32.3l-.42.32a2.92,2.92,0,0,1-.61.37,1.75,1.75,0,0,1-.63.17.55.55,0,0,1-.49-.26,1.46,1.46,0,0,1-.15-.91,4.56,4.56,0,0,1,.35-1.22,8.18,8.18,0,0,1,.73-1.35,10.71,10.71,0,0,1,1-1.31,10,10,0,0,1,1.11-1.06,7,7,0,0,1,1.14-.75,2.89,2.89,0,0,1,1.07-.32A1.26,1.26,0,0,1,585.25,144.83Z" transform="translate(-96.79 -14.48)"/><path class="cls-1" d="M591.06,144.83a.43.43,0,0,1,.17.29,1,1,0,0,1,0,.43,1.46,1.46,0,0,1-.17.48,2.16,2.16,0,0,1-.33.48,2.18,2.18,0,0,1-.38.05H590a1.79,1.79,0,0,0,.32-.58.5.5,0,0,0,0-.42.31.31,0,0,0-.31-.16,1.46,1.46,0,0,0-.64.23l-.49.31c-.15.11-.31.22-.46.35s-.44.39-.65.6l-.63.66a6.39,6.39,0,0,0-.42.56c-.2.28-.4.59-.59.92a6.36,6.36,0,0,0-.45,1c-.11.31-.11.53,0,.67a.25.25,0,0,0,.31.06,1.78,1.78,0,0,0,.48-.28c.17-.13.36-.3.57-.49s.41-.39.61-.6.39-.42.59-.66l.56-.67.48-.62c.15-.19.27-.36.37-.5l.86.06c-.16.18-.31.38-.47.59s-.33.45-.52.68a8.76,8.76,0,0,0-.49.86,7.77,7.77,0,0,0-.42.92,1.4,1.4,0,0,0-.13.6c0,.13.14.1.38-.08l.58-.46.75-.6.76-.59c.24-.19.43-.34.56-.46l.08.85-.67.57-.9.72c-.31.24-.62.46-.92.67a3.79,3.79,0,0,1-.74.44.71.71,0,0,1-.52.08.37.37,0,0,1-.21-.3,1.41,1.41,0,0,1,0-.54,5.13,5.13,0,0,1,.16-.65c-.12.11-.24.23-.34.34a3,3,0,0,1-.32.3l-.42.32a2.92,2.92,0,0,1-.61.37,1.75,1.75,0,0,1-.63.17.55.55,0,0,1-.49-.26,1.46,1.46,0,0,1-.15-.91,4.56,4.56,0,0,1,.35-1.22,8.18,8.18,0,0,1,.73-1.35,10.71,10.71,0,0,1,1-1.31,10,10,0,0,1,1.11-1.06,7,7,0,0,1,1.14-.75,2.89,2.89,0,0,1,1.07-.32A1.26,1.26,0,0,1,591.06,144.83Z" transform="translate(-96.79 -14.48)"/><path class="cls-1" d="M595.77,146.2a2,2,0,0,1,.16-.24.54.54,0,0,0,.1-.18,1.2,1.2,0,0,1,.12-.61,4.1,4.1,0,0,1,.34-.62,3.17,3.17,0,0,1,.41-.46q.23-.18.33-.15a.26.26,0,0,1,.16.18.86.86,0,0,1,0,.33,2.69,2.69,0,0,1-.1.41,1.92,1.92,0,0,1-.16.42,2.35,2.35,0,0,1-.21.39,1.3,1.3,0,0,1-.18.22.55.55,0,0,0,0,.41.29.29,0,0,0,.32.19,2.71,2.71,0,0,0,.61-.11,6.56,6.56,0,0,0,.62-.23c.21-.09.41-.19.6-.29a4.16,4.16,0,0,1,.57-.27l-.08.16-.19.33-.21.35c-.07.11-.12.17-.13.2a2.3,2.3,0,0,1-.53.37,3.09,3.09,0,0,1-.82.34,1.61,1.61,0,0,1-.81,0,.67.67,0,0,1-.48-.55c-.31.39-.63.79-1,1.2l-1,1.19-.87,1c-.27.3-.49.53-.65.69l-.44.32a2.92,2.92,0,0,1-.61.37,1.75,1.75,0,0,1-.63.17.55.55,0,0,1-.49-.26,1.7,1.7,0,0,1-.09-1.21,6.43,6.43,0,0,1,.65-1.63,17.47,17.47,0,0,1,1.3-2,15.37,15.37,0,0,1,1.62-1.89s.08,0,.2,0h.38a2.06,2.06,0,0,1,.36,0c.11,0,.16,0,.16,0a8.2,8.2,0,0,0-1,.93q-.49.56-.93,1.14c-.29.39-.55.75-.77,1.09s-.39.59-.48.74l-.31.57c-.1.19-.19.38-.27.56a2.21,2.21,0,0,0-.16.5.55.55,0,0,0,0,.36c.06.15.25.08.57-.18a10.36,10.36,0,0,0,1.13-1.11c.44-.48.9-1,1.39-1.58S595.38,146.69,595.77,146.2Z" transform="translate(-96.79 -14.48)"/><path class="cls-1" d="M597.56,149.35a3.51,3.51,0,0,0-.22.86.89.89,0,0,0,.12.63.48.48,0,0,0,.46.14,2.65,2.65,0,0,0,.68-.14,7.45,7.45,0,0,0,.82-.44c.28-.17.56-.36.85-.57l.85-.67c.29-.23.56-.46.81-.68l.14.78-1,.86a13.54,13.54,0,0,1-1.28,1,6,6,0,0,1-1.36.69,1.56,1.56,0,0,1-1.22,0,1,1,0,0,1-.61-.9,4.56,4.56,0,0,1,.15-1.59,9,9,0,0,1,.5-1.29,11.23,11.23,0,0,1,.84-1.46,7.25,7.25,0,0,1,1.08-1.25,2.81,2.81,0,0,1,1.24-.69.87.87,0,0,1,.65.09.82.82,0,0,1,.35.45,1.38,1.38,0,0,1,.05.65,1.33,1.33,0,0,1-.25.64,4.49,4.49,0,0,1-.68.76c-.29.27-.6.54-.94.8s-.69.51-1,.74S597.86,149.18,597.56,149.35Zm.9-1.85-.16.29a2,2,0,0,0-.16.29c.25-.14.51-.31.79-.5a6.77,6.77,0,0,0,.85-.66,5.22,5.22,0,0,0,.65-.72,1.17,1.17,0,0,0,.28-.67c0-.11,0-.16-.15-.17a.91.91,0,0,0-.49.21,3.12,3.12,0,0,0-.42.36c-.32.35-.56.64-.73.86S598.61,147.25,598.46,147.5Z" transform="translate(-96.79 -14.48)"/><path class="cls-1" d="M604.75,149.6c-.23.26-.46.5-.68.72l-.63.6-.42.32a3,3,0,0,1-.62.37,1.75,1.75,0,0,1-.63.17.54.54,0,0,1-.48-.26,1.39,1.39,0,0,1-.15-.91,4.51,4.51,0,0,1,.34-1.22,9,9,0,0,1,.73-1.35,10.78,10.78,0,0,1,1-1.31,7.69,7.69,0,0,1,1-1,5.76,5.76,0,0,1,1.09-.73,3.35,3.35,0,0,1,1-.36,1.39,1.39,0,0,1,.87.12c.15-.26.28-.52.41-.78s.26-.51.38-.77c.49-1,1-2,1.56-3a33.73,33.73,0,0,1,1.81-2.88l.17-.24a1.11,1.11,0,0,1,.19-.22,1.4,1.4,0,0,1,.61-.42c.21-.06.31,0,.31.13a5.8,5.8,0,0,1-.23.55L612,138c-.15.3-.3.59-.44.85s-.23.43-.27.48c-.7,1.22-1.4,2.47-2.12,3.75s-1.44,2.54-2.16,3.78l-.87,1.54a14.44,14.44,0,0,0-.79,1.63,1.45,1.45,0,0,0-.14.61c0,.13.15.11.39-.07l2.64-2.11.08.85c-.16.15-.39.34-.67.57s-.58.48-.89.72l-.92.67a3.54,3.54,0,0,1-.75.44c-.28.11-.48.12-.59,0a.59.59,0,0,1-.17-.46,2.25,2.25,0,0,1,.1-.72c.07-.28.15-.54.23-.78ZM602,150.68c.08.12.23.12.43,0a3.57,3.57,0,0,0,.71-.52c.26-.24.55-.51.84-.83s.58-.63.85-.93l.72-.84L606,147c.11-.2.21-.4.32-.59l.33-.58q0-.33-.21-.42c-.16-.06-.42,0-.77.22l-.49.31a5.07,5.07,0,0,0-.46.35,7.45,7.45,0,0,0-.65.6l-.63.66a6.39,6.39,0,0,0-.42.56c-.2.28-.4.59-.59.92a5.52,5.52,0,0,0-.45,1C601.87,150.32,601.87,150.54,602,150.68Z" transform="translate(-96.79 -14.48)"/><path class="cls-1" d="M607.93,148.68c.52-.47,1-.9,1.38-1.31a10.33,10.33,0,0,0,1.13-1.32,1.46,1.46,0,0,1,.1-.62,3.61,3.61,0,0,1,.33-.65,3,3,0,0,1,.4-.49c.14-.13.25-.18.32-.17a.23.23,0,0,1,.16.17.82.82,0,0,1,0,.32q0,.18-.09.42t-.15.42c-.08.15-.16.29-.23.4a.73.73,0,0,1-.2.2.73.73,0,0,0,.07.43.28.28,0,0,0,.32.19,1.75,1.75,0,0,0,.49-.07,1.44,1.44,0,0,0,.4-.22,1.1,1.1,0,0,0,.23-.21l.21-.21a.28.28,0,0,1,.18-.08s.08.06.09.19,0,.19,0,.27a1.36,1.36,0,0,1,0,.33c-.2.29-.42.59-.66.88l-.74.88-.73.92a7.61,7.61,0,0,0-.61,1,1.34,1.34,0,0,0-.18.39.36.36,0,0,0,0,.27c0,.06.09.09.19.08a1,1,0,0,0,.41-.16,7,7,0,0,0,.78-.58c.3-.25.59-.49.87-.75l.77-.69.46-.42.07.85-.45.44-.77.69c-.29.25-.6.5-.91.75a8.72,8.72,0,0,1-.87.58,1.58,1.58,0,0,1-.59.16.66.66,0,0,1-.45-.12.79.79,0,0,1-.28-.44,1.83,1.83,0,0,1,0-.74,4.47,4.47,0,0,1,.41-1,9.46,9.46,0,0,1,.59-.91c.22-.28.45-.54.67-.79s.43-.45.62-.64a.9.9,0,0,1-.73.23.57.57,0,0,1-.37-.48l-.61.65c-.19.2-.38.4-.58.59l-.64.6-.75.67Z" transform="translate(-96.79 -14.48)"/><path class="cls-1" d="M619.06,144.83a.43.43,0,0,1,.17.29,1,1,0,0,1,0,.43,1.46,1.46,0,0,1-.17.48,2.56,2.56,0,0,1-.33.48,2.32,2.32,0,0,1-.38.05h-.41a1.66,1.66,0,0,0,.33-.58.5.5,0,0,0,0-.42.31.31,0,0,0-.32-.16,1.39,1.39,0,0,0-.63.23l-.49.31a5.07,5.07,0,0,0-.46.35,7.45,7.45,0,0,0-.65.6l-.63.66a6.39,6.39,0,0,0-.42.56c-.2.28-.4.59-.59.92a6.36,6.36,0,0,0-.45,1c-.11.31-.11.53,0,.67s.17.11.31.06a1.78,1.78,0,0,0,.48-.28c.17-.13.36-.3.57-.49s.41-.39.61-.6.39-.42.59-.66l.56-.67.48-.62c.15-.19.27-.36.37-.5l.85.06-.47.59c-.15.22-.33.45-.51.68a7.1,7.1,0,0,0-.49.86,7.77,7.77,0,0,0-.42.92,1.26,1.26,0,0,0-.13.6c0,.13.14.1.38-.08l.58-.46.75-.6.76-.59c.24-.19.42-.34.55-.46l.09.85c-.17.15-.39.34-.68.57s-.58.48-.89.72-.62.46-.92.67a3.54,3.54,0,0,1-.75.44.68.68,0,0,1-.51.08.41.41,0,0,1-.22-.3,1.44,1.44,0,0,1,0-.54,5.13,5.13,0,0,1,.16-.65,3.63,3.63,0,0,0-.34.34c-.11.11-.21.21-.32.3l-.42.32a3,3,0,0,1-.62.37,1.65,1.65,0,0,1-.63.17.54.54,0,0,1-.48-.26,1.46,1.46,0,0,1-.15-.91,4.22,4.22,0,0,1,.35-1.22,7.5,7.5,0,0,1,.73-1.35,10.71,10.71,0,0,1,1-1.31,10,10,0,0,1,1.11-1.06,6.2,6.2,0,0,1,1.14-.75,2.85,2.85,0,0,1,1.06-.32A1.29,1.29,0,0,1,619.06,144.83Z" transform="translate(-96.79 -14.48)"/><path class="cls-1" d="M255.82,99.93V64.34a2.79,2.79,0,0,0-.5-1.74,2.27,2.27,0,0,0-1.89-.65V60.76h11.93V62a2.27,2.27,0,0,0-1.89.65,2.79,2.79,0,0,0-.5,1.74v45.13a2.79,2.79,0,0,0,.5,1.74,2.27,2.27,0,0,0,1.89.65v1.19H252.64v-1.19c1.32,0,2-.27,2-.8a1.68,1.68,0,0,0-.39-1.14,6.46,6.46,0,0,1-.6-.75L218.24,68.91v40.56a2.79,2.79,0,0,0,.49,1.74,2.27,2.27,0,0,0,1.89.65v1.19H208.69v-1.19a2.27,2.27,0,0,0,1.89-.65,2.79,2.79,0,0,0,.5-1.74V64.34a2.79,2.79,0,0,0-.5-1.74,2.27,2.27,0,0,0-1.89-.65V60.76h16.8V62a3,3,0,0,0-1.49.25.92.92,0,0,0-.4.84,1.18,1.18,0,0,0,.25.65,5.72,5.72,0,0,0,.55.65l31.22,35.59Z" transform="translate(-96.79 -14.48)"/><path class="cls-1" d="M283.85,64.34a2.73,2.73,0,0,0-.5-1.74,2.26,2.26,0,0,0-1.88-.65V60.76h41.65a7.32,7.32,0,0,0,3.28-.45,1.7,1.7,0,0,0,.7-1.54h1.19V70.1H327.1a2.67,2.67,0,0,0-.8-2,4.68,4.68,0,0,0-3.08-.74h-31V83h20.18a6.33,6.33,0,0,0,2.94-.6,2.25,2.25,0,0,0,1.14-2.19h1.19v12h-1.19a2.35,2.35,0,0,0-.89-2.09,5.72,5.72,0,0,0-3-.59H292.2v16.9h33.21a5.12,5.12,0,0,0,3.08-.75,3.08,3.08,0,0,0,1-2.63h1.2v11.83h-1.2c0-1.26-1.16-1.89-3.47-1.89H281.47v-1.19a2.26,2.26,0,0,0,1.88-.65,2.73,2.73,0,0,0,.5-1.74Zm16-7,11-13.72h7.66L304.93,57.38Z" transform="translate(-96.79 -14.48)"/><path class="cls-1" d="M343.8,111.86a2.59,2.59,0,0,0,2.09-.65,2.79,2.79,0,0,0,.49-1.74V64.34a2.62,2.62,0,0,0-.54-1.74A2.92,2.92,0,0,0,343.6,62V60.76h16.8V62c-1.52,0-2.29.43-2.29,1.29a1.77,1.77,0,0,0,.4,1.1l16.21,31.81,16.8-31.81a3.82,3.82,0,0,1,.25-.6,1.33,1.33,0,0,0,.15-.6,1,1,0,0,0-.55-.84,3.87,3.87,0,0,0-1.94-.35V60.76h17.8V62a2.9,2.9,0,0,0-2.24.65,2.63,2.63,0,0,0-.55,1.74v45.13a2.63,2.63,0,0,0,.55,1.74,2.9,2.9,0,0,0,2.24.65v1.19H393.31v-1.19a2.92,2.92,0,0,0,2.24-.65,2.62,2.62,0,0,0,.54-1.74V70.2l-.3-.2-21.17,42.06L353.44,70l-.1.2v39.27a2.44,2.44,0,0,0,.4,1.74,2.27,2.27,0,0,0,1.89.65v1.19H343.8Z" transform="translate(-96.79 -14.48)"/><path class="cls-1" d="M425,64.34a2.73,2.73,0,0,0-.5-1.74,2.26,2.26,0,0,0-1.88-.65V60.76h41.65a7.32,7.32,0,0,0,3.28-.45,1.68,1.68,0,0,0,.7-1.54h1.19V70.1h-1.19a2.67,2.67,0,0,0-.8-2,4.68,4.68,0,0,0-3.08-.74h-31V83h20.18a6.3,6.3,0,0,0,2.94-.6,2.25,2.25,0,0,0,1.14-2.19h1.19v12h-1.19a2.35,2.35,0,0,0-.89-2.09,5.72,5.72,0,0,0-3-.59H433.37v16.9h33.21a5.12,5.12,0,0,0,3.08-.75,3.08,3.08,0,0,0,1-2.63h1.2v11.83h-1.2c0-1.26-1.16-1.89-3.47-1.89H422.64v-1.19a2.26,2.26,0,0,0,1.88-.65,2.73,2.73,0,0,0,.5-1.74Z" transform="translate(-96.79 -14.48)"/><path class="cls-1" d="M488.84,97.34a3.49,3.49,0,0,0-.29,1.29,4.06,4.06,0,0,0,1.74,2.89,18.45,18.45,0,0,0,4.57,2.73,34.74,34.74,0,0,0,6.41,2,33.44,33.44,0,0,0,7.26.8q9.45,0,13.67-2.79c2.82-1.85,4.22-4.24,4.22-7.16a5.62,5.62,0,0,0-1-3.48,6.65,6.65,0,0,0-2.88-2.13,16.77,16.77,0,0,0-4.28-1,42.69,42.69,0,0,0-5.22-.3c-3.05,0-6.28,0-9.69-.05a34.53,34.53,0,0,1-9.39-1.29,15.61,15.61,0,0,1-7.06-4.12q-2.79-2.89-2.79-8.55a11.35,11.35,0,0,1,2-6.52,17.41,17.41,0,0,1,5.42-5,29.88,29.88,0,0,1,8.1-3.28,41.23,41.23,0,0,1,10.14-1.19,39.92,39.92,0,0,1,7.41.6,52.09,52.09,0,0,1,5.42,1.29c1.52.46,2.78.89,3.77,1.29a7,7,0,0,0,2.49.6,2.51,2.51,0,0,0,1.59-.4,13.08,13.08,0,0,0,1-.89l1.19.49-5.47,11.44-1.09-.7a5.47,5.47,0,0,0,.1-1.29c0-.47-.4-1-1.2-1.69A14,14,0,0,0,521.55,69a28,28,0,0,0-5.22-1.59,31.73,31.73,0,0,0-6.61-.65q-8.06,0-12.77,2.59t-4.72,6.76a4.29,4.29,0,0,0,1,3,6.86,6.86,0,0,0,2.88,1.79,17.09,17.09,0,0,0,4.28.84c1.62.14,3.36.2,5.22.2q4.67,0,9.74.15a33.5,33.5,0,0,1,9.34,1.54,15.91,15.91,0,0,1,7.06,4.48c1.86,2.05,2.79,5.07,2.79,9a12.4,12.4,0,0,1-1.64,6.12,16.14,16.14,0,0,1-4.92,5.22,25.8,25.8,0,0,1-8.11,3.58,43.44,43.44,0,0,1-11.18,1.29,44.27,44.27,0,0,1-9.3-.85,40,40,0,0,1-6.71-2c-1.85-.77-3.38-1.46-4.57-2.09a6.67,6.67,0,0,0-2.88-1,3,3,0,0,0-2.09,1.2l-1-.6,5.37-11.43Z" transform="translate(-96.79 -14.48)"/><path class="cls-1" d="M547.5,111.86a2.27,2.27,0,0,0,1.89-.65,2.79,2.79,0,0,0,.5-1.74V64.34a2.79,2.79,0,0,0-.5-1.74A2.27,2.27,0,0,0,547.5,62V60.76h13.12V62a2.25,2.25,0,0,0-1.88.65,2.73,2.73,0,0,0-.5,1.74v45.13a2.73,2.73,0,0,0,.5,1.74,2.25,2.25,0,0,0,1.88.65v1.19H547.5Z" transform="translate(-96.79 -14.48)"/><path class="cls-1" d="M580.31,97.34a3.33,3.33,0,0,0-.3,1.29,4.06,4.06,0,0,0,1.74,2.89,18.45,18.45,0,0,0,4.57,2.73,34.61,34.61,0,0,0,6.42,2,33.28,33.28,0,0,0,7.25.8q9.45,0,13.67-2.79t4.23-7.16a5.62,5.62,0,0,0-1-3.48A6.53,6.53,0,0,0,614,91.53a16.79,16.79,0,0,0-4.27-1,42.93,42.93,0,0,0-5.22-.3c-3.05,0-6.28,0-9.7-.05a34.59,34.59,0,0,1-9.39-1.29,15.67,15.67,0,0,1-7.06-4.12c-1.86-1.93-2.78-4.78-2.78-8.55a11.41,11.41,0,0,1,2-6.52,17.52,17.52,0,0,1,5.42-5,29.82,29.82,0,0,1,8.11-3.28,41.11,41.11,0,0,1,10.14-1.19,39.88,39.88,0,0,1,7.4.6A52.09,52.09,0,0,1,614,62.05q2.28.69,3.78,1.29a6.93,6.93,0,0,0,2.48.6,2.51,2.51,0,0,0,1.59-.4,10.14,10.14,0,0,0,1-.89l1.19.49-5.47,11.44-1.09-.7a5,5,0,0,0,.1-1.29c0-.47-.4-1-1.19-1.69A14.39,14.39,0,0,0,613,69a28,28,0,0,0-5.22-1.59,31.86,31.86,0,0,0-6.61-.65q-8.06,0-12.78,2.59t-4.72,6.76a4.34,4.34,0,0,0,1,3,7,7,0,0,0,2.89,1.79,17,17,0,0,0,4.27.84c1.62.14,3.36.2,5.22.2q4.67,0,9.74.15a33.57,33.57,0,0,1,9.35,1.54,16,16,0,0,1,7.06,4.48c1.85,2.05,2.78,5.07,2.78,9a12.4,12.4,0,0,1-1.64,6.12,15.93,15.93,0,0,1-4.92,5.22,25.84,25.84,0,0,1-8.1,3.58,43.57,43.57,0,0,1-11.19,1.29,44.11,44.11,0,0,1-9.29-.85,39.68,39.68,0,0,1-6.71-2c-1.86-.77-3.38-1.46-4.58-2.09a6.67,6.67,0,0,0-2.88-1,3,3,0,0,0-2.09,1.2l-1-.6L579,96.65Z" transform="translate(-96.79 -14.48)"/><path class="cls-1" d="M186.78,158.8h-.9a76.6,76.6,0,0,1-11.62-.73,61.57,61.57,0,0,1-11.47-2.56,34.25,34.25,0,0,1-9.7-5.27,39.44,39.44,0,0,1-9.14-9.93A48.54,48.54,0,0,1,137.61,126a40.62,40.62,0,0,1-1.47-8c-.16-2.52-.3-5-.28-7.58a107.23,107.23,0,0,1,1.59-11.91c0,.57-1,8.13-1,8.69a44.17,44.17,0,0,0-.17,7.63,45.87,45.87,0,0,0,1.27,8.36,56.06,56.06,0,0,0,2.5,7.72,59.87,59.87,0,0,0,4,7.78,54.21,54.21,0,0,0,4.08,5.4,30.63,30.63,0,0,0,7.17,6.37,32.58,32.58,0,0,0,11.18,4.87c2.55.56,5.12,1.07,7.71,1.48,1.75.27,3.53.37,5.3.47,2.46.14,4.92.21,7.37.3Z" transform="translate(-96.79 -14.48)"/><path class="cls-1" d="M186.78,158.8c-1.92,0-3.85,0-5.77-.06s-3.85-.23-5.77-.46-3.81-.5-5.71-.87c-1-.16-1.89-.39-2.83-.61s-1.87-.49-2.8-.77a33.3,33.3,0,0,1-10.33-5.17,38.62,38.62,0,0,1-4.43-3.76,41.56,41.56,0,0,1-3.8-4.38,46,46,0,0,1-5.77-10.05,46.85,46.85,0,0,1-1.95-5.47,54.69,54.69,0,0,1-1.37-5.65,41.78,41.78,0,0,1-.59-5.78c-.06-1-.11-1.93-.12-2.9s-.08-1.92,0-2.91a57.78,57.78,0,0,1,.77-5.76c.34-1.9.67-3.8,1.09-5.68h0a.09.09,0,0,1,.1-.07.09.09,0,0,1,.07.09l-.17,1.43c0,.23-.05.47-.06.7V101a1.08,1.08,0,0,0,0,.18c0,.06.3.15.21.2s-.27.21-.38.32,0,.23-.07.34l-.07.71c0,.47-.05,1-.08,1.43,0,1.91-.31,3.77-.39,5.65a42.48,42.48,0,0,0,.06,5.64,49.87,49.87,0,0,0,.74,5.6,54.93,54.93,0,0,0,3.37,10.77c.75,1.74,1.61,3.4,2.52,5.06a31.68,31.68,0,0,0,3.12,4.7c1.2,1.46,2.32,3,3.64,4.34a32,32,0,0,0,4.31,3.63,35.53,35.53,0,0,0,4.82,2.95,30.78,30.78,0,0,0,5.24,2.09c1.8.54,3.67.89,5.52,1.3s3.71.75,5.59,1,3.77.32,5.66.41l5.67.27h0Zm0,0v-1.18l-5.68-.2c-1.89-.06-3.78-.14-5.68-.32s-3.75-.59-5.62-.91-3.73-.69-5.56-1.24a31.73,31.73,0,0,1-5.3-2.09,36.7,36.7,0,0,1-4.89-3,34,34,0,0,1-4.38-3.66c-1.37-1.36-2.48-2.89-3.69-4.35a32.43,32.43,0,0,1-3.18-4.74c-.92-1.66-1.81-3.36-2.57-5.1a55.69,55.69,0,0,1-3.46-10.87,51.31,51.31,0,0,1-.77-5.66,43.63,43.63,0,0,1-.09-5.72c0-1,.13-1.88.22-2.85s.34-1.87.53-2.8c.1-.46.21-.93.28-1.39l.11-.71c0-.12.07-.23,0-.35s-.28-.27-.3-.4.25-.09.26-.14a1.21,1.21,0,0,0,0-.18l.07-.35c0-.23.08-.46.11-.7l.12-1.41.17,0c-.33,1.9-.57,3.81-.76,5.72s-.4,3.84-.53,5.72,0,3.82.12,5.74a40,40,0,0,0,.54,5.7,53.94,53.94,0,0,0,1.31,5.59,47,47,0,0,0,1.89,5.42,45.35,45.35,0,0,0,5.63,10,42,42,0,0,0,3.73,4.36,37.79,37.79,0,0,0,4.35,3.74A33,33,0,0,0,164,155.7c.91.28,1.83.57,2.77.78s1.86.49,2.8.66c1.88.39,3.79.71,5.69,1s3.82.44,5.74.55S184.86,158.78,186.78,158.8Z" transform="translate(-96.79 -14.48)"/><path class="cls-1" d="M119.83,68.18c-.36.74-.37,1.48-.74,2.22a53.85,53.85,0,0,0-2.51,5.12,21.62,21.62,0,0,0-1.27,7.55c0,3.18,1.16,6,2,9a67.31,67.31,0,0,1,1.47,7,46,46,0,0,1,.58,10.15c-.12,2.48-.49,4.94-.85,7.39-.28,1.91-.68,3.8-1.07,5.7s-.86,3.81-1.24,5.73c-.47,2.4-.85,4.81-1.31,7.22-.39,2.09-.85,4.17-1.24,6.26-.26,1.45-.48,2.9-.69,4.35s-.76,3.11-1.13,4.65c.06-.59.11-1.18.17-1.77.19-2,.35-4,.59-6s.58-4.28.91-6.41c.38-2.45.76-4.89,1.19-7.33.63-3.61,1.23-7.24,2-10.83a54.12,54.12,0,0,0,1-13.73c-.12-2.5-.56-5-.84-7.47-.33-2.95-1.44-5.68-2.24-8.5a24.33,24.33,0,0,1-.63-3.91A18.79,18.79,0,0,1,115.17,76c.3-.84,1.07-1.55,1.21-2.39a6.17,6.17,0,0,1,1-2.19c.63-1,1.34-2,2-3.06.06-.1.29-.08.44-.12Z" transform="translate(-96.79 -14.48)"/><path class="cls-1" d="M142.4,91.17a4.68,4.68,0,0,0-.24-1.43,35.14,35.14,0,0,1-.71-4.56,12,12,0,0,1,.34-3.26c.54-2.47,1.24-4.9,1.75-7.37a29.16,29.16,0,0,0,.45-4.39c.11-2.09.08-4.2.17-6.29s.29-4.26.43-6.39.39-4.54.4-6.81a15.61,15.61,0,0,0-1.43-6.85,2.94,2.94,0,0,0-2.12-1.57c-1.07-.23-2.17-.35-3.25-.59a8.77,8.77,0,0,1-4.41-2.21,1.94,1.94,0,0,1-.44-.81c1.68,1.88,3.87,2.42,6.26,2.62,1.54.13,3.23.14,4.25,1.52a10.38,10.38,0,0,1,1.43,3,21.23,21.23,0,0,1,.87,7.56c-.11,2.17-.36,4.34-.55,6.51,0,.07,0,.14,0,.21-.05,1.51-.09,3-.14,4.53-.09,2.35,0,4.72-.33,7.05a50.58,50.58,0,0,1-1.34,6.31c-.69,2.66-1.67,5.27-1.49,8.07.09,1.51.38,3,.39,4.54a7.74,7.74,0,0,1-.48,1.88A11.18,11.18,0,0,0,142.4,91.17Z" transform="translate(-96.79 -14.48)"/><path class="cls-1" d="M142.4,91.17a5.85,5.85,0,0,0-.07-.72l-.17-.7h0c-.23-1.2-.49-2.39-.6-3.61l-.12-.9c0-.31,0-.61,0-.92a9.21,9.21,0,0,1,.2-1.81c.2-1.2.53-2.37.79-3.56l.84-3.56a13.43,13.43,0,0,0,.33-1.79c.07-.6.19-1.2.21-1.81.09-1.21.13-2.43.15-3.64l.08-3.65c0-1.22.14-2.43.21-3.65l.43-7.29c0-1.21.21-2.44.13-3.63a10.88,10.88,0,0,0-.17-1.81l-.13-.89-.23-.88-.23-.87-.34-.84c-.12-.26-.22-.58-.34-.81a2.39,2.39,0,0,0-.55-.69c-.81-.83-2.16-.81-3.33-1.07a13.86,13.86,0,0,1-3.54-1,6.59,6.59,0,0,1-.83-.44,4,4,0,0,1-.77-.51l-.75-.62-.26-.37-.2-.47-.44-1,.76.85a7.19,7.19,0,0,0,3,2,14.86,14.86,0,0,0,3.65.64,5.07,5.07,0,0,1,3.56,1.28,3.18,3.18,0,0,1,.55.8l.47.81c.26.58.48,1.18.7,1.79l.46,1.82.29,1.88.11,1.89,0,1.89L146,57c-.09,1.25-.26,2.5-.28,3.75l-.25,7.52c-.11,1.25-.13,2.51-.31,3.76s-.39,2.47-.74,3.69-.6,2.44-1,3.64a35.25,35.25,0,0,0-.88,3.65l-.16.92,0,.94a9.85,9.85,0,0,0,0,1.88c.14,1.24.22,2.49.3,3.75h0c-.06.32-.1.64-.19.95l-.3.93h0s0-.1,0-.15l0-.16.07-.31A2.65,2.65,0,0,0,142.4,91.17Zm0,0a6.53,6.53,0,0,1-.21,1.25h0l.3-.93c.08-.31.12-.64.18-1h0c-.09-1.25-.18-2.5-.32-3.75a9.83,9.83,0,0,1-.06-1.88l0-.94.16-.93a32.39,32.39,0,0,1,.85-3.66c.35-1.21.64-2.43.93-3.65s.47-2.46.71-3.69.19-2.49.29-3.74l.2-7.52c0-1.26.18-2.5.26-3.75l.3-3.75,0-1.87-.12-1.87-.29-1.83-.47-1.82c-.21-.57-.42-1.15-.68-1.71l-.47-.81a3.15,3.15,0,0,0-.52-.74,4.77,4.77,0,0,0-3.35-1.15,15,15,0,0,1-3.74-.64,7.17,7.17,0,0,1-3.2-2.07l.31-.19.15.38.26.37.67.55a3.59,3.59,0,0,0,.73.49,6,6,0,0,0,.79.43,13.5,13.5,0,0,0,3.47,1l1.8.33a3.32,3.32,0,0,1,1.69.85,2.67,2.67,0,0,1,.57.74,8.77,8.77,0,0,1,.36.86l.34.86.24.89.22.89.13.92a12.56,12.56,0,0,1,.16,1.83c.07,1.23-.11,2.43-.15,3.65l-.48,7.29c-.07,1.22-.19,2.43-.23,3.64l-.11,3.65c0,1.22-.07,2.44-.17,3.65,0,.62-.14,1.21-.22,1.82a11.1,11.1,0,0,1-.35,1.79L142.53,79c-.27,1.19-.61,2.36-.82,3.56a9,9,0,0,0-.21,1.81c0,.3,0,.61,0,.91l.11.9c.11,1.21.36,2.41.57,3.6h0l.17.71A5.85,5.85,0,0,1,142.4,91.17Z" transform="translate(-96.79 -14.48)"/><path class="cls-1" d="M123.79,41.63c0,1.83-.35,1.47-1,3.2a4.88,4.88,0,0,0-.44,2c-.14.94.49,1.76.66,2.73a26.52,26.52,0,0,1,.77,4.09,17.28,17.28,0,0,1-.57,4.14c-.36,1.62-.87,3.2-1.33,4.79a6.83,6.83,0,0,1-.39,1.1c-.66,1.4-1.66,1.55-2.79.47a9.32,9.32,0,0,1-3-6.46,62.69,62.69,0,0,0-1.36-7.8,14.76,14.76,0,0,1-.1-3.58A2.77,2.77,0,0,1,116,43.94a9.83,9.83,0,0,1,2.28-.75c-.57.27-1.15.52-1.7.82a3.07,3.07,0,0,0-1.8,2.86c0,2,.71,3.9,1.13,5.83q.58,2.65,1,5.34a8.45,8.45,0,0,0,2.85,5.33,2.83,2.83,0,0,0,.42.2c.23-.82.43-1.6.66-2.38.43-1.45.89-2.89,1.32-4.34a11.92,11.92,0,0,0-.06-6.62,8.43,8.43,0,0,1-.21-4.59,22.64,22.64,0,0,1,1.34-3.17c.69-1.44.15,1.24.26-.35C123.53,41.89,123.73,41.86,123.79,41.63Z" transform="translate(-96.79 -14.48)"/><path class="cls-1" d="M107.77,156.39c1.19.29,8.07.16,9.47-1.61.69.11,1.93-1,2.61-1.19,1.29-.3,2,.9,3.2,1.51a2.05,2.05,0,0,0,2.56-.14,2.15,2.15,0,0,1,3.12.29c.88.82,1.57,1,2.64.15,1.32-1.1,2.69-.87,4.12-.16a14.16,14.16,0,0,0,2.47.86,1.81,1.81,0,0,0,1.26,0,2.89,2.89,0,0,1,2.58,0,18,18,0,0,0,2.06.46,4.07,4.07,0,0,0,2.81-.69c1.11-.67,2.31-.48,3.53-.43a30.13,30.13,0,0,0,4.75-.13c7.67,1.75,10.4,1,25.44,5.26-21.58-3.78-19.66-3.51-23.82-4.23a9.31,9.31,0,0,0-2.2-.38c-1.81.12-3.61.17-5.41.32a3.83,3.83,0,0,0-1.71.51,6,6,0,0,1-5.22.65,3.48,3.48,0,0,0-2.37-.15c-1.65.6-3.24,0-4.65-.8a2.74,2.74,0,0,0-3.37.26,2.3,2.3,0,0,1-3.36-.31c-1-1-1.29-1.08-2.48-.26a2.37,2.37,0,0,1-2.65,0c-1.38-.78-1.4-1.91-3-1.74C118.39,154.64,118.37,158,107.77,156.39Z" transform="translate(-96.79 -14.48)"/><path class="cls-1" d="M121.57,25.52c-1.57-1.25-1.15-3.57-.87-5.06,0-.2.16-.18.28-.19,1.1-.07.94-1,1-1.64a4.12,4.12,0,0,1,2-3.16c.32-.18.6-.37.91-.55,2.13-1.25,5.41.34,6.26,2.66.09.23.48.23.76.3,1.24.34,1.6,1,1.8,2.27.06.42.38.2.74.41,1.24.75,1.2,2.59,1.27,2.32,0,.09.08.26.19.34.92.7,0,1.58-.77,2.81a13.8,13.8,0,0,0,.71-1.37c.19-.45.12-.88-.39-1s-.49-.4-.35-.78a.78.78,0,0,0-.52-1.11,3,3,0,0,1-2.06-2.37c-.12-.85-.84-.82-1.42-.83s-1-.18-1.1-.88c-.26-1.31-1.36-1.81-2.49-2.12-1.94-.55-3.95.88-4.46,3.15a2.21,2.21,0,0,1-1.54,1.95c-.12,0-.24.24-.27.38a5.94,5.94,0,0,0-.17,3.13A3.74,3.74,0,0,0,121.57,25.52Z" transform="translate(-96.79 -14.48)"/><path class="cls-1" d="M138.35,91.53c-.26-1.63-.66-2.09-.1-3.7.33-1,.89-1.85,1.26-2.8a5,5,0,0,0,.35-1.79c-.07-3.37-.28-6.75-.25-10.12a47.62,47.62,0,0,1,.63-5.42c.12-.92.32-1.84.37-2.77a44,44,0,0,0,.13-5.13c-.1-1.81-.46-3.61-.69-5.41a4,4,0,0,1,.06-1.09c.37,2,.86,3.92,1.07,5.9a36,36,0,0,1,0,5.19c-.07,1.55-.24,3.09-.45,4.63a47.58,47.58,0,0,0-.43,8c0,1.43.23,2.86.28,4.29a9.22,9.22,0,0,1-1.26,5.38,6.39,6.39,0,0,0-1,4.84C138.43,91.91,138.35,91.13,138.35,91.53Z" transform="translate(-96.79 -14.48)"/><path class="cls-1" d="M139,72.29a15.82,15.82,0,0,1-1.73-6,6.3,6.3,0,0,1,.88-3.27A23.79,23.79,0,0,1,140,60.19c-.19.66-.35,1.35-.57,2a15.24,15.24,0,0,1-.62,1.5,7.49,7.49,0,0,0-.38,4.85c.26,1.22.49,2.46.73,3.7Z" transform="translate(-96.79 -14.48)"/><path class="cls-1" d="M123,23.68a6.3,6.3,0,0,1,2.6-3.51,3.63,3.63,0,0,1,3.93-.09,6.85,6.85,0,0,1,2.93,3.84c-.68-.54-1.34-1.12-2.05-1.61a15.38,15.38,0,0,0-2.14-1.26,2.65,2.65,0,0,0-3,.65C124.62,22.23,123.63,23.05,123,23.68Z" transform="translate(-96.79 -14.48)"/><path class="cls-1" d="M117.25,56.85c.51-2.48,1.09-5,1.51-7.45.27-1.58.29-3.19.43-4.79a7.52,7.52,0,0,1,1-3.84A14.43,14.43,0,0,1,121.6,39a23.42,23.42,0,0,0-1.2,2.47,6.4,6.4,0,0,0-.43,2.28,26.36,26.36,0,0,1-1.52,9.64c-.34,1-.51,2.08-.77,3.13a2.2,2.2,0,0,1-.17.39Z" transform="translate(-96.79 -14.48)"/><path class="cls-1" d="M134.62,33.69c.15-.25.28-.5.45-.73a2.25,2.25,0,0,0-.07-3.15,2.2,2.2,0,0,1-.33-1.74c.34-1.29-.3-2.16-1-3.08a2.77,2.77,0,0,1-.41-.91c.37.45.73.91,1.13,1.33a2.82,2.82,0,0,1,.78,2.58,2.27,2.27,0,0,0,.49,2,1.83,1.83,0,0,1,.18,2.24c-.33.57-.71,1.09-1.07,1.63Z" transform="translate(-96.79 -14.48)"/><path class="cls-1" d="M120.6,27.93c.05.37.11.73.17,1.1s0,1,.24,1.37a1.3,1.3,0,0,1,.3,1.46,2.13,2.13,0,0,0,.69,2.43c.17.19.36.37.53.55l-.16.17c-.44-.45-.89-.88-1.3-1.36a2.05,2.05,0,0,1-.2-2c0-.18.06-.5,0-.57-.87-.65-.49-1.56-.54-2.37a2.71,2.71,0,0,1,.26-.84Z" transform="translate(-96.79 -14.48)"/><path class="cls-1" d="M119.85,68.2a5.55,5.55,0,0,1,.45-1.09,11.16,11.16,0,0,0,2.37-5.88,6,6,0,0,1-.53,3.53,24.65,24.65,0,0,1-1.53,2.75,3.4,3.4,0,0,1-.78.67Z" transform="translate(-96.79 -14.48)"/><path class="cls-1" d="M120.6,27.93l0-.08a1.92,1.92,0,0,1,.69-1.7l.19.08Z" transform="translate(-96.79 -14.48)"/><path class="cls-1" d="M133.61,33.83a4.42,4.42,0,0,1,.42.9,8.06,8.06,0,0,1,.27.93,5.24,5.24,0,0,0,.27,1l.11.48a1.71,1.71,0,0,0,.12.47,8.41,8.41,0,0,1,.28.85,4.62,4.62,0,0,1,.31.93,4.52,4.52,0,0,1-.85-.54,5.34,5.34,0,0,1-.67-.81,4.14,4.14,0,0,1-.43-1.13l-.14-.59a2.58,2.58,0,0,1,0-.55,6.69,6.69,0,0,1,.09-1A4.38,4.38,0,0,1,133.61,33.83Z" transform="translate(-96.79 -14.48)"/><path class="cls-1" d="M135.55,34.45s.25.39.56,1c.14.31.34.64.52,1s.41.73.62,1.1c.11.19.24.34.36.52a6,6,0,0,0,.38.47,3.89,3.89,0,0,0,.4.41c.14.12.26.26.39.36l.62.54a2.71,2.71,0,0,1,.23.22,7.42,7.42,0,0,1-1.09-.39,3.93,3.93,0,0,1-1-.65,2.9,2.9,0,0,1-.49-.5,6.07,6.07,0,0,1-.43-.57,6.66,6.66,0,0,1-.59-1.24,6.47,6.47,0,0,1-.32-1.14C135.58,34.91,135.55,34.45,135.55,34.45Z" transform="translate(-96.79 -14.48)"/><path class="cls-1" d="M121.82,36.33a6.91,6.91,0,0,1,.23.8c0,.25.17.51.23.8a6,6,0,0,0,.32.86,4.28,4.28,0,0,0,.45.78,6.79,6.79,0,0,0,.52.62c.33.36.55.62.55.62a4.63,4.63,0,0,1-.75-.39,3.22,3.22,0,0,1-.68-.55,4.32,4.32,0,0,1-.58-.86,6.31,6.31,0,0,1-.28-1,4.76,4.76,0,0,1-.08-.87C121.77,36.66,121.82,36.33,121.82,36.33Z" transform="translate(-96.79 -14.48)"/><path class="cls-1" d="M124.64,24.12a3.79,3.79,0,0,1-.52.19c-.17,0-.32.13-.49.17a1.8,1.8,0,0,0-.5.25,1.86,1.86,0,0,0-.46.31c-.13.13-.28.23-.39.35a4.79,4.79,0,0,1-.42.36,2.6,2.6,0,0,1,.17-.53,2,2,0,0,1,.83-1,2.16,2.16,0,0,1,1.23-.25A3.31,3.31,0,0,1,124.64,24.12Z" transform="translate(-96.79 -14.48)"/><path class="cls-1" d="M129.08,23.06a4.58,4.58,0,0,1-.63,0c-.19,0-.39,0-.61,0a3.88,3.88,0,0,0-.67.06,4,4,0,0,0-1.18.35c-.34.15-.58.23-.58.23a2.42,2.42,0,0,1,.41-.48,2.15,2.15,0,0,1,.54-.39,2.93,2.93,0,0,1,.74-.25,3.3,3.3,0,0,1,1.4.17A4.43,4.43,0,0,1,129.08,23.06Z" transform="translate(-96.79 -14.48)"/><path class="cls-1" d="M132.92,25.52a4.9,4.9,0,0,1-.5-.38c-.13-.14-.32-.23-.48-.38a4.38,4.38,0,0,0-.54-.39,4.27,4.27,0,0,0-1.14-.49,5.93,5.93,0,0,1-.59-.2,2.58,2.58,0,0,1,.62-.1,2.25,2.25,0,0,1,.67,0,3.15,3.15,0,0,1,.72.3,3.31,3.31,0,0,1,1,1A4.19,4.19,0,0,1,132.92,25.52Z" transform="translate(-96.79 -14.48)"/><path class="cls-1" d="M123.33,25.1a2.79,2.79,0,0,1,.45-.23,4.29,4.29,0,0,1,.47-.16c.2,0,.31-.15.46-.22a1,1,0,0,0,.44-.22c.12-.11.28-.15.38-.26a2.74,2.74,0,0,1,.41-.28,2.73,2.73,0,0,1-.18.47,1.45,1.45,0,0,1-.31.43,1.51,1.51,0,0,1-.52.36,2.29,2.29,0,0,1-.59.18,4.16,4.16,0,0,1-.5,0A3.41,3.41,0,0,1,123.33,25.1Z" transform="translate(-96.79 -14.48)"/><path class="cls-1" d="M121.11,28.8a2.27,2.27,0,0,1,.26-.43,3.4,3.4,0,0,1,.32-.38c.15-.12.18-.29.27-.43a1,1,0,0,0,.26-.41c0-.16.16-.28.19-.43a2.75,2.75,0,0,1,.2-.46,3.53,3.53,0,0,1,.1.51,1.74,1.74,0,0,1,0,.53,1.31,1.31,0,0,1-.25.57,2.42,2.42,0,0,1-.41.47c-.15.11-.31.18-.43.26A2.74,2.74,0,0,1,121.11,28.8Z" transform="translate(-96.79 -14.48)"/><path class="cls-1" d="M127.69,23.56a3.19,3.19,0,0,1,.47.17c.13.08.29.14.44.24s.31.12.47.2a.94.94,0,0,0,.46.16,4.2,4.2,0,0,0,.45.11,2.81,2.81,0,0,1,.48.11,2.72,2.72,0,0,1-.47.19,1.68,1.68,0,0,1-.53.06,1.5,1.5,0,0,1-.61-.14,2.48,2.48,0,0,1-.54-.31c-.13-.12-.23-.27-.33-.38A3,3,0,0,1,127.69,23.56Z" transform="translate(-96.79 -14.48)"/><path class="cls-1" d="M131.72,25.32a2.4,2.4,0,0,1,.4.3c.1.1.24.2.36.34s.27.2.4.31a1,1,0,0,0,.4.29c.15.05.26.18.41.22a2.94,2.94,0,0,1,.44.23,2.84,2.84,0,0,1-.51.06,1.74,1.74,0,0,1-.52-.08,1.4,1.4,0,0,1-.56-.3c-.15-.15-.36-.28-.43-.44a4.83,4.83,0,0,1-.23-.45A2.44,2.44,0,0,1,131.72,25.32Z" transform="translate(-96.79 -14.48)"/><path class="cls-1" d="M124.68,40.5a5.78,5.78,0,0,1,.18.76c0,.23.1.48.14.75a5.12,5.12,0,0,0,.2.84,3.34,3.34,0,0,0,.27.79,5.76,5.76,0,0,0,.35.66c.24.38.39.66.39.66a3.68,3.68,0,0,1-.62-.47,2.63,2.63,0,0,1-.53-.63,2.06,2.06,0,0,1-.21-.42,2.2,2.2,0,0,1-.17-.45,5.32,5.32,0,0,1-.13-1.72C124.61,40.81,124.68,40.5,124.68,40.5Z" transform="translate(-96.79 -14.48)"/><path class="cls-1" d="M123.25,38s.32.13.76.36a4.27,4.27,0,0,1,.71.5,5.48,5.48,0,0,1,.71.73,4.16,4.16,0,0,1,.46.92,3,3,0,0,1,.14.88,5,5,0,0,1,0,.84s-.12-.32-.27-.79a6,6,0,0,0-.28-.76,3.84,3.84,0,0,0-.45-.78,5.81,5.81,0,0,0-.6-.7,8.14,8.14,0,0,0-.57-.59A7,7,0,0,1,123.25,38Z" transform="translate(-96.79 -14.48)"/><path class="cls-1" d="M126,43l.4.43a4.76,4.76,0,0,1,.7,1.4,5.89,5.89,0,0,1,.23,1,8.63,8.63,0,0,1,.1,1.16,13.47,13.47,0,0,1-.24,2.5A18.06,18.06,0,0,1,125.79,54c-.28.57-.53,1-.73,1.36l-.3.5,0,0,.27-.51a13.23,13.23,0,0,0,.66-1.38,18.88,18.88,0,0,0,1.23-4.44,13.36,13.36,0,0,0-.08-4.55c-.06-.3-.17-.56-.23-.81l-.27-.59-.33-.48Z" transform="translate(-96.79 -14.48)"/><path class="cls-1" d="M126.27,44.26l.2.28a2.54,2.54,0,0,1,.39.84A3.65,3.65,0,0,1,127,46a4,4,0,0,1,0,.7,6.43,6.43,0,0,1-.27,1.47,10.41,10.41,0,0,1-1.17,2.5,9.1,9.1,0,0,1-.75,1l0,0a9,9,0,0,0,.67-1,10.15,10.15,0,0,0,1-2.51,6.58,6.58,0,0,0,.12-2.65,4.28,4.28,0,0,0-.24-.85l-.14-.32Z" transform="translate(-96.79 -14.48)"/><path class="cls-1" d="M122.42,33.19a4.61,4.61,0,0,1,.49.43,3.7,3.7,0,0,1,.75,1.25,3.86,3.86,0,0,1,.09.81,2.39,2.39,0,0,1-.14.67,2.72,2.72,0,0,1-.28.6s0-.27,0-.65a4.24,4.24,0,0,0-.17-1.27,3.71,3.71,0,0,0-.24-.66c-.1-.19-.14-.41-.24-.58A6,6,0,0,1,122.42,33.19Z" transform="translate(-96.79 -14.48)"/><path class="cls-1" d="M134.13,41.21s-.1.09-.26.27-.38.44-.64.74-.51.71-.81,1.11a12.61,12.61,0,0,0-.76,1.36l-.34.72a4.11,4.11,0,0,0-.25.72,7,7,0,0,1-.22.69,2.18,2.18,0,0,0-.14.63c-.13.79-.25,1.33-.25,1.33s0-.54,0-1.37a5.88,5.88,0,0,1,.24-1.39,3.53,3.53,0,0,1,.24-.76c.1-.25.21-.51.32-.76a13.48,13.48,0,0,1,.84-1.39,11.45,11.45,0,0,1,.94-1A5.56,5.56,0,0,1,134.13,41.21Z" transform="translate(-96.79 -14.48)"/><path class="cls-1" d="M115.77,40.71s-.12-.27-.36-.78a21.54,21.54,0,0,0-1.17-2.13,5.79,5.79,0,0,0-1.08-1.27,1.38,1.38,0,0,0-1.5-.36,3.53,3.53,0,0,0-1.4,1.46,15.3,15.3,0,0,0-1.1,2.22,78.29,78.29,0,0,0-3.27,11.75c-.49,2.2-.92,4.48-1.38,6.8s-.88,4.69-1.28,7.06-.82,4.74-1.22,7.08-.77,4.64-1.14,6.86c-.73,4.46-1.42,8.62-2,12.19s-1.12,6.54-1.48,8.62l-.59,3.28s0-1.21.14-3.33.29-5.13.61-8.74.74-7.82,1.31-12.31c.3-2.25.58-4.57,1-6.92s.74-4.75,1.15-7.13.89-4.76,1.37-7.1,1-4.62,1.59-6.83,1.18-4.32,1.83-6.31A40.69,40.69,0,0,1,108,39.3,13.23,13.23,0,0,1,109.35,37a4.4,4.4,0,0,1,2-1.63,1.87,1.87,0,0,1,1.3,0,2.77,2.77,0,0,1,.92.65,6.76,6.76,0,0,1,1,1.51,14.83,14.83,0,0,1,.89,2.31Z" transform="translate(-96.79 -14.48)"/><path class="cls-1" d="M143.47,39.28l.23-.81a13.36,13.36,0,0,1,.87-2.23,4.87,4.87,0,0,1,1.05-1.44,1.92,1.92,0,0,1,1-.52,1.85,1.85,0,0,1,1.24.22c1.46.86,2.26,2.4,3,4a65.53,65.53,0,0,1,3.84,11.45c.53,2.13,1.07,4.33,1.52,6.59s.9,4.55,1.32,6.85.76,4.61,1.11,6.88.63,4.52.91,6.69c.55,4.34,1,8.41,1.24,11.9s.42,6.4.53,8.44.1,3.21.1,3.21L159.53,89l-1.94-11.77c-.36-2.15-.73-4.37-1.1-6.63s-.78-4.54-1.18-6.83-.8-4.57-1.23-6.81-.85-4.45-1.31-6.57-.92-4.16-1.43-6.08-1-3.71-1.64-5.3a17.14,17.14,0,0,0-1-2.19,4.68,4.68,0,0,0-1.25-1.58,1.13,1.13,0,0,0-1.43.06,4.3,4.3,0,0,0-1,1.17,15.71,15.71,0,0,0-1.14,2.05Z" transform="translate(-96.79 -14.48)"/><path class="cls-1" d="M103.23,85.33a15.72,15.72,0,0,1-.78,1.72c-.19.52-.39,1.11-.65,1.71-.13.31-.2.66-.33,1l-.35,1c-.43,1.4-.87,2.79-1.19,3.84s-.6,1.77-.6,1.77a8.71,8.71,0,0,1,0-1.89,13.15,13.15,0,0,1,.22-1.92,20.29,20.29,0,0,1,.52-2.15c.27-.71.53-1.42.85-2.07a18.73,18.73,0,0,1,1-1.68A15.19,15.19,0,0,1,103.23,85.33Z" transform="translate(-96.79 -14.48)"/><path class="cls-1" d="M108,83.31S107.63,84,107,85c-.27.52-.59,1.1-1,1.7-.17.33-.33.67-.52,1s-.38.66-.54,1l-1.06,2c-.34.65-.67,1.25-1,1.77-.57,1-1,1.71-1,1.71a11.94,11.94,0,0,1,.39-2,18.17,18.17,0,0,1,.64-1.94c.24-.71.63-1.41,1-2.14s.82-1.38,1.23-2,.93-1.16,1.33-1.6A14.6,14.6,0,0,1,108,83.31Z" transform="translate(-96.79 -14.48)"/><path class="cls-1" d="M112.41,82a14,14,0,0,1-1.14,1.35c-.29.42-.64.89-1,1.36s-.77,1.06-1.17,1.61-.79,1.11-1.16,1.63-.73,1-1,1.42c-.62.83-1.09,1.38-1.09,1.38a9.19,9.19,0,0,1,.51-1.7,13.57,13.57,0,0,1,.76-1.64,19.89,19.89,0,0,1,1.08-1.76c.43-.56.88-1.11,1.33-1.6s1-.89,1.4-1.22A14.82,14.82,0,0,1,112.41,82Z" transform="translate(-96.79 -14.48)"/><path class="cls-1" d="M155.34,84.46a14.74,14.74,0,0,1,1.35,1.33,18.71,18.71,0,0,1,1.12,1.65,22.33,22.33,0,0,1,1,2c.25.72.54,1.43.71,2.13a17.35,17.35,0,0,1,.41,1.9,10.34,10.34,0,0,1,.16,1.91s-.35-.69-.8-1.72c-.22-.52-.48-1.12-.74-1.77s-.54-1.33-.81-2c-.15-.34-.29-.68-.43-1s-.26-.68-.4-1c-.29-.61-.54-1.2-.75-1.72A17,17,0,0,1,155.34,84.46Z" transform="translate(-96.79 -14.48)"/><path class="cls-1" d="M150.7,82.43a16.57,16.57,0,0,1,1.48,1.1c.4.38.83.88,1.29,1.42s.83,1.17,1.24,1.79.72,1.29,1,1.93a13.73,13.73,0,0,1,.67,1.76,9.68,9.68,0,0,1,.43,1.81s-.44-.61-1-1.53c-.29-.46-.63-1-1-1.57s-.73-1.19-1.08-1.81l-.56-.91c-.19-.29-.33-.61-.52-.89-.36-.54-.67-1.08-.95-1.55A15,15,0,0,1,150.7,82.43Z" transform="translate(-96.79 -14.48)"/><path class="cls-1" d="M147.46,81.41s.17.06.44.19a3.22,3.22,0,0,1,.48.25c.17.12.38.25.59.41a8.83,8.83,0,0,1,1.27,1.26,12.13,12.13,0,0,1,1.13,1.69,13.4,13.4,0,0,1,.81,1.84,13,13,0,0,1,.48,1.68,8.15,8.15,0,0,1,.19,1.71s-.36-.6-.82-1.49-1.06-2-1.68-3.19c-.3-.58-.63-1.13-.94-1.65s-.64-1-.91-1.39-.53-.72-.74-.94Z" transform="translate(-96.79 -14.48)"/><path class="cls-1" d="M146.66,125.46l.4-.35a8.77,8.77,0,0,1,1.19-.94,7.55,7.55,0,0,1,.91-.59,8.67,8.67,0,0,1,1.14-.6,12.94,12.94,0,0,1,2.92-1,15.53,15.53,0,0,1,1.76-.25l1-.07.95,0a16.27,16.27,0,0,1,2,.2,15.12,15.12,0,0,1,2,.57,14.2,14.2,0,0,1,3.9,2.1,14.88,14.88,0,0,1,3.19,3.29A15.41,15.41,0,0,1,170,132a15.18,15.18,0,0,1,.58,4.42c-.08.7-.07,1.37-.21,2.05s-.28,1.37-.5,2-.44,1.22-.72,1.77-.58,1.06-.87,1.55l-1,1.31c-.33.4-.7.72-1,1a6.17,6.17,0,0,1-1,.85l-.86.66c-.55.36-1,.58-1.32.76l-.46.26s.61-.43,1.64-1.2l.79-.72a6.19,6.19,0,0,0,.86-.9c.28-.35.61-.69.89-1.11l.86-1.3c.24-.49.48-1,.74-1.52s.39-1.13.59-1.71.24-1.21.37-1.83.09-1.34.14-2a13.48,13.48,0,0,0-2.47-7.84,13.53,13.53,0,0,0-2.9-3.09,12.86,12.86,0,0,0-3.58-2,19.48,19.48,0,0,0-1.89-.58,16.2,16.2,0,0,0-1.87-.3l-.94-.07-.87,0a15,15,0,0,0-1.68.15,15.82,15.82,0,0,0-2.88.76,9.46,9.46,0,0,0-1.15.49,8.16,8.16,0,0,0-.94.49,12.81,12.81,0,0,0-1.27.81Z" transform="translate(-96.79 -14.48)"/><path class="cls-1" d="M158.19,138.84a4.38,4.38,0,0,1-.29.35,2.77,2.77,0,0,1-.42.34,3,3,0,0,1-.65.32l-.41.1a2.08,2.08,0,0,1-.26,0h-.63c-.17,0-.35-.08-.53-.13a3.06,3.06,0,0,1-1-.47,4.28,4.28,0,0,1-.79-.8,3.6,3.6,0,0,1-.46-1,1.71,1.71,0,0,1-.1-.54,5.46,5.46,0,0,1,0-.6c.07-.29.12-.56.21-.85a7.1,7.1,0,0,1,.46-.8,5.57,5.57,0,0,1,.53-.49,1.6,1.6,0,0,1,.47-.26c.27-.12.42-.17.42-.17l-.28.35a1.8,1.8,0,0,0-.29.39c-.09.16-.18.34-.29.52a6.06,6.06,0,0,1-.16.61c0,.24,0,.55-.06.84.06.12.07.47.17.68a2.55,2.55,0,0,0,.34.68,2.85,2.85,0,0,0,.52.57,2.89,2.89,0,0,0,.63.4,2,2,0,0,1,.3.14l.42.09.19,0h.13l.34,0c.2,0,.42,0,.59-.07a4,4,0,0,0,.47-.12Z" transform="translate(-96.79 -14.48)"/><path class="cls-1" d="M155.89,123.7a7.87,7.87,0,0,1,.33,1.35,17.95,17.95,0,0,1,0,6,8.17,8.17,0,0,1-.33,1.36,9.6,9.6,0,0,1-.33-1.36,17.95,17.95,0,0,1,0-6A9.2,9.2,0,0,1,155.89,123.7Z" transform="translate(-96.79 -14.48)"/><path class="cls-1" d="M164.94,127.45a8.13,8.13,0,0,1-.72,1.19,18.64,18.64,0,0,1-4.22,4.22,8.13,8.13,0,0,1-1.19.72,8.13,8.13,0,0,1,.72-1.19,18.64,18.64,0,0,1,4.22-4.22A8.13,8.13,0,0,1,164.94,127.45Z" transform="translate(-96.79 -14.48)"/><path class="cls-1" d="M168.69,136.5a9.2,9.2,0,0,1-1.35.33,17.95,17.95,0,0,1-6,0,9.6,9.6,0,0,1-1.36-.33,8.17,8.17,0,0,1,1.36-.33,17.95,17.95,0,0,1,6,0A9.2,9.2,0,0,1,168.69,136.5Z" transform="translate(-96.79 -14.48)"/><path class="cls-1" d="M164.94,145.55a9.42,9.42,0,0,1-1.19-.72,18.33,18.33,0,0,1-2.28-1.94,17.51,17.51,0,0,1-1.94-2.28,7.89,7.89,0,0,1-.72-1.2,8.91,8.91,0,0,1,1.19.73,18.18,18.18,0,0,1,2.28,1.93,17.54,17.54,0,0,1,1.94,2.29A8.13,8.13,0,0,1,164.94,145.55Z" transform="translate(-96.79 -14.48)"/><path class="cls-1" d="M155.89,147.9a6.59,6.59,0,0,1-.33-1.14,12.63,12.63,0,0,1,0-5,7,7,0,0,1,.33-1.14,5.94,5.94,0,0,1,.33,1.14,12.62,12.62,0,0,1,0,5A5.66,5.66,0,0,1,155.89,147.9Z" transform="translate(-96.79 -14.48)"/><polygon class="cls-1" points="52.38 127.92 56.18 124.93 53.2 128.74 52.38 127.92"/><polygon class="cls-1" points="48.97 121.44 54.98 122.02 48.97 122.6 48.97 121.44"/><path class="cls-1" d="M146.84,127.45a8.13,8.13,0,0,1,1.19.72,17.54,17.54,0,0,1,2.29,1.94,18.18,18.18,0,0,1,1.93,2.28,8.91,8.91,0,0,1,.73,1.19,8.5,8.5,0,0,1-1.2-.72,17.51,17.51,0,0,1-2.28-1.94,18.18,18.18,0,0,1-1.93-2.28A8.91,8.91,0,0,1,146.84,127.45Z" transform="translate(-96.79 -14.48)"/><path class="cls-1" d="M121.88,81.48a3.64,3.64,0,0,1,.69-.13,4.24,4.24,0,0,1,1.42.12,5.15,5.15,0,0,1,1.33.6,2.94,2.94,0,0,1,.51.44,4.16,4.16,0,0,1-.72.1,4.45,4.45,0,0,1-1.37-.16c-.23-.08-.49-.14-.71-.24a3.73,3.73,0,0,1-.6-.3A3.67,3.67,0,0,1,121.88,81.48Z" transform="translate(-96.79 -14.48)"/><path class="cls-1" d="M124.71,78.91a2.74,2.74,0,0,1,.46.46,4,4,0,0,1,.63,1.11,4.36,4.36,0,0,1,.24,1.23,5.69,5.69,0,0,1,0,.65,2.35,2.35,0,0,1-.51-.4,3.47,3.47,0,0,1-.66-1.13,3.63,3.63,0,0,1-.22-1.28A3.16,3.16,0,0,1,124.71,78.91Z" transform="translate(-96.79 -14.48)"/><path class="cls-1" d="M121.29,78.21a2.55,2.55,0,0,1,.7.19,2.86,2.86,0,0,1,.6.31,6.77,6.77,0,0,1,.58.44,3.51,3.51,0,0,1,.83,1.09,3.27,3.27,0,0,1,.27.71,2,2,0,0,1-.68-.13,4,4,0,0,1-1.26-.76,3.58,3.58,0,0,1-.83-1.16A2.62,2.62,0,0,1,121.29,78.21Z" transform="translate(-96.79 -14.48)"/><path class="cls-1" d="M123.94,83.27a3.44,3.44,0,0,1,.69-.17,4.21,4.21,0,0,1,1.44.06,4.78,4.78,0,0,1,1.38.55,2.59,2.59,0,0,1,.52.43,4.39,4.39,0,0,1-.72.13,4.44,4.44,0,0,1-1.39-.09c-.23-.07-.5-.12-.72-.21a5.19,5.19,0,0,1-.62-.28A3.39,3.39,0,0,1,123.94,83.27Z" transform="translate(-96.79 -14.48)"/><path class="cls-1" d="M126.84,80.46a3.62,3.62,0,0,1,.47.46,4.18,4.18,0,0,1,.64,1.13,4.46,4.46,0,0,1,.25,1.25,4.74,4.74,0,0,1,0,.66,2.24,2.24,0,0,1-.51-.41,3.47,3.47,0,0,1-.69-1.14,3.77,3.77,0,0,1-.22-1.3A2.78,2.78,0,0,1,126.84,80.46Z" transform="translate(-96.79 -14.48)"/><path class="cls-1" d="M126,85a3.85,3.85,0,0,1,.69-.18,4.41,4.41,0,0,1,1.44,0,4.52,4.52,0,0,1,1.38.54,2.65,2.65,0,0,1,.53.42,5.06,5.06,0,0,1-.72.14,4.17,4.17,0,0,1-1.39-.08,5.9,5.9,0,0,1-.72-.2,3.06,3.06,0,0,1-.63-.27A4,4,0,0,1,126,85Z" transform="translate(-96.79 -14.48)"/><path class="cls-1" d="M128.89,82.09a3.56,3.56,0,0,1,.48.45,4.42,4.42,0,0,1,.66,1.12,4.71,4.71,0,0,1,.27,1.25,6.06,6.06,0,0,1,0,.67,2.53,2.53,0,0,1-.52-.4,3.58,3.58,0,0,1-.95-2.44A2.52,2.52,0,0,1,128.89,82.09Z" transform="translate(-96.79 -14.48)"/><path class="cls-1" d="M128.19,86.69a3.08,3.08,0,0,1,.68-.21,4.23,4.23,0,0,1,1.43,0,4.68,4.68,0,0,1,1.4.48,2.82,2.82,0,0,1,.55.4,4.54,4.54,0,0,1-.72.17,4.65,4.65,0,0,1-1.39,0c-.23-.06-.49-.09-.72-.17a3.76,3.76,0,0,1-.63-.25A3.64,3.64,0,0,1,128.19,86.69Z" transform="translate(-96.79 -14.48)"/><path class="cls-1" d="M130.88,83.69a3.23,3.23,0,0,1,.5.43,4.09,4.09,0,0,1,.71,1.1,4.52,4.52,0,0,1,.34,1.25,5,5,0,0,1,0,.66,2,2,0,0,1-.54-.38,3.52,3.52,0,0,1-.76-1.11,4,4,0,0,1-.31-1.29A3.09,3.09,0,0,1,130.88,83.69Z" transform="translate(-96.79 -14.48)"/><path class="cls-1" d="M130.38,88.3a3.44,3.44,0,0,1,.67-.22,4.26,4.26,0,0,1,1.44,0,4.8,4.8,0,0,1,1.4.45,2.82,2.82,0,0,1,.55.4,4.81,4.81,0,0,1-.72.18,4.55,4.55,0,0,1-1.38,0c-.23-.06-.5-.09-.73-.17a3.31,3.31,0,0,1-.63-.23A3.64,3.64,0,0,1,130.38,88.3Z" transform="translate(-96.79 -14.48)"/><path class="cls-1" d="M133,85.25a3.23,3.23,0,0,1,.51.42,4,4,0,0,1,.73,1.1,4.47,4.47,0,0,1,.36,1.24,5.22,5.22,0,0,1,0,.67,2.73,2.73,0,0,1-.55-.37,3.73,3.73,0,0,1-.78-1.11,4,4,0,0,1-.34-1.29A3.61,3.61,0,0,1,133,85.25Z" transform="translate(-96.79 -14.48)"/><path class="cls-1" d="M132.68,89.89a3.77,3.77,0,0,1,.67-.25,4.33,4.33,0,0,1,1.43-.09,4.71,4.71,0,0,1,1.41.4,3,3,0,0,1,.56.37,5,5,0,0,1-.71.21,4.12,4.12,0,0,1-1.37,0c-.24,0-.5-.07-.73-.13a4,4,0,0,1-.64-.21A4.09,4.09,0,0,1,132.68,89.89Z" transform="translate(-96.79 -14.48)"/><path class="cls-1" d="M135.15,86.71a3.1,3.1,0,0,1,.53.4,4.13,4.13,0,0,1,.79,1.07,4.38,4.38,0,0,1,.41,1.24,4.47,4.47,0,0,1,.06.67,2.56,2.56,0,0,1-.56-.36,3.54,3.54,0,0,1-.84-1.07,3.92,3.92,0,0,1-.39-1.29A3,3,0,0,1,135.15,86.71Z" transform="translate(-96.79 -14.48)"/><path class="cls-1" d="M141.25,92.62c-.25-.65-.61-.75-.83-.7a1.69,1.69,0,0,0-.65.25,1.92,1.92,0,0,0,.34.76,1.37,1.37,0,0,1,.61-.15A1.5,1.5,0,0,1,141.25,92.62Z" transform="translate(-96.79 -14.48)"/><path class="cls-1" d="M141.25,92.62l-.18-.24a.64.64,0,0,0-.2-.2.38.38,0,0,0-.21-.12c-.07,0-.14,0-.21,0h0a3.38,3.38,0,0,0-.58.25l.06-.16c.05.12.08.25.12.37s.12.22.17.33l-.15,0a1.22,1.22,0,0,1,.68-.11l-.08,0A1.29,1.29,0,0,1,141.25,92.62Zm0,0-.26.1a1,1,0,0,0-.21.12l0,0h-.05a.69.69,0,0,0-.26.06l-.28.13-.09,0L140,93a3.26,3.26,0,0,1-.24-.4c-.05-.14-.11-.28-.16-.43l0-.1.09-.06a2.74,2.74,0,0,1,.71-.25h0a.54.54,0,0,1,.36.06.5.5,0,0,1,.26.21C141.17,92.23,141.16,92.43,141.25,92.62Z" transform="translate(-96.79 -14.48)"/><path class="cls-1" d="M142.2,93.64a2.59,2.59,0,0,0-.15-.49,1.36,1.36,0,0,0-.21-.28.82.82,0,0,0-.42-.22,1,1,0,0,0-.48.06,1.08,1.08,0,0,0-.2.08,2.07,2.07,0,0,0,.31.79,1.16,1.16,0,0,1,.61,0,.44.44,0,0,1,.31,0A1.47,1.47,0,0,1,142.2,93.64Z" transform="translate(-96.79 -14.48)"/><path class="cls-1" d="M142.2,93.64l-.19-.48h0l-.12-.14-.06-.07s0,0-.06,0a.84.84,0,0,0-.32-.15s0,0-.07,0h-.09a.32.32,0,0,0-.18,0l-.08,0-.06,0-.17.09.1-.18.08.4a2.67,2.67,0,0,0,.14.36l-.08,0a1.3,1.3,0,0,1,.64.07h0a.65.65,0,0,1,.34,0h0Zm0,0-.23,0h0a.56.56,0,0,0-.29,0h0a1.15,1.15,0,0,0-.58,0H141l0,0c-.08-.13-.17-.26-.24-.4l-.16-.42,0-.13.13,0,.19-.06a.41.41,0,0,1,.12,0l.11,0a.67.67,0,0,1,.2,0h.1a.18.18,0,0,1,.12,0,1,1,0,0,1,.34.21.31.31,0,0,1,.07.09L142,93l.11.17h0Z" transform="translate(-96.79 -14.48)"/><path class="cls-1" d="M143,95.05a2,2,0,0,0-.24-.91.79.79,0,0,0-.38-.39,1.64,1.64,0,0,0-.48-.17.65.65,0,0,0-.21,0,3.4,3.4,0,0,0,.2.9,1,1,0,0,1,.59.26A1.16,1.16,0,0,1,143,95.05Z" transform="translate(-96.79 -14.48)"/><path class="cls-1" d="M143,95.05l-.11-.49a2.4,2.4,0,0,0-.11-.23l-.05-.1a.33.33,0,0,0-.06-.1l-.16-.19-.17-.09-.49-.13h0l-.17,0,.11-.17.13.88-.07,0a2.07,2.07,0,0,1,.33.1.89.89,0,0,1,.29.22l0,0a1.24,1.24,0,0,1,.53.33Zm0,0a1.18,1.18,0,0,0-.51-.24h0v0a.94.94,0,0,0-.58-.19h-.05l0,0-.27-.92-.05-.16h.16l.25,0h.05l.46.19a1,1,0,0,1,.14.1l.11.09.13.22a.23.23,0,0,1,.06.12l0,.13a2.17,2.17,0,0,1,.07.24Z" transform="translate(-96.79 -14.48)"/><path class="cls-1" d="M143.55,96.72a2.51,2.51,0,0,0-.1-1,1.61,1.61,0,0,0-.32-.53,2.66,2.66,0,0,0-.23-.24l-.21-.12a.68.68,0,0,0-.21-.08,4.77,4.77,0,0,0,.07.95,1.8,1.8,0,0,1,.54.51A2.82,2.82,0,0,1,143.55,96.72Z" transform="translate(-96.79 -14.48)"/><path class="cls-1" d="M143.55,96.72l0-.48c0-.16-.08-.3-.12-.45a1.84,1.84,0,0,0-.25-.39,1.1,1.1,0,0,0-.15-.16l-.18-.16,0,0-.19-.1s0,0,0,0h0l-.06,0-.11,0,.21-.14v.93l0-.06a3.15,3.15,0,0,1,.28.25l.24.31,0,0A2.36,2.36,0,0,1,143.55,96.72Zm0,0a2.66,2.66,0,0,0-.47-.43h0l0,0L142.8,96l-.31-.21,0,0v0l-.13-1,0-.25.25.12.1,0,.06,0h0l.05,0,.2.14h0l.16.19a1.13,1.13,0,0,1,.15.21,1.85,1.85,0,0,1,.21.45,4.36,4.36,0,0,1,.06.49Z" transform="translate(-96.79 -14.48)"/><path class="cls-1" d="M141.24,94.45a.47.47,0,0,1-.45-.13,1.39,1.39,0,0,1-.28-.39c-.2-.44-.37-.91-.37-.91a.56.56,0,0,1,.54-.19,5.54,5.54,0,0,0,.37.83,3.42,3.42,0,0,0,.11.48Z" transform="translate(-96.79 -14.48)"/><path class="cls-1" d="M141.24,94.45a.5.5,0,0,1-.49-.08,1.12,1.12,0,0,1-.34-.4c-.16-.29-.28-.6-.41-.9l0-.08.06-.08a.7.7,0,0,1,.71-.22h.06l0,.07c.11.27.22.55.31.84l0,0C141.19,93.91,141.2,94.18,141.24,94.45Zm0,0a4.82,4.82,0,0,1-.29-.78v0c-.15-.27-.28-.55-.41-.84l.08.08a.51.51,0,0,0-.37.16l0-.16c.11.31.25.6.34.92l.08.19c0,.07.11.14.14.2A.44.44,0,0,0,141.24,94.45Z" transform="translate(-96.79 -14.48)"/><path class="cls-1" d="M142,95.4a.72.72,0,0,1-.42-.29,2.55,2.55,0,0,1-.2-.48,9.37,9.37,0,0,1-.27-1,.57.57,0,0,1,.55,0c.08.21.16.7.25,1,0,.1,0,.3,0,.47s0,.18,0,.24Z" transform="translate(-96.79 -14.48)"/><path class="cls-1" d="M142,95.4l-.25-.08a1.7,1.7,0,0,1-.23-.17h0l-.18-.34-.05-.09a.76.76,0,0,1,0-.11l-.07-.18-.22-.74,0-.1.08-.06a.67.67,0,0,1,.73,0l.05,0v0c.08.32.15.65.21,1v0A7.54,7.54,0,0,1,142,95.4Zm0,0c-.06-.27-.14-.54-.19-.83v0c-.12-.31-.21-.63-.3-.94l.07.07a.6.6,0,0,0-.2,0,.76.76,0,0,0-.18.06l.05-.16.18.75,0,.19,0,.07,0,.09c0,.12.08.24.11.36h0c.05,0,.08.12.14.18Z" transform="translate(-96.79 -14.48)"/><path class="cls-1" d="M142.5,96.64a.88.88,0,0,1-.36-.48,2.56,2.56,0,0,1-.13-.53c0-.27,0-.55-.08-.73s0-.32,0-.32a.47.47,0,0,1,.54.18c0,.27.07.72.11,1a3.16,3.16,0,0,0,0,.5Z" transform="translate(-96.79 -14.48)"/><path class="cls-1" d="M142.5,96.64l-.22-.16a1.08,1.08,0,0,1-.18-.24A1.18,1.18,0,0,1,142,96l-.08-.27c-.09-.36-.12-.74-.18-1.1v-.12l.1,0a.61.61,0,0,1,.42,0,.76.76,0,0,1,.32.25l0,0v0c0,.35,0,.7,0,1.05h0v0C142.6,96.08,142.54,96.35,142.5,96.64Zm0,0a8.1,8.1,0,0,1-.06-.86v0c-.07-.35-.11-.69-.15-1l0,.07a.39.39,0,0,0-.17-.11.42.42,0,0,0-.19,0l.09-.16.05.55c0,.18,0,.37,0,.54s.06.39.1.53a1,1,0,0,0,.09.24Z" transform="translate(-96.79 -14.48)"/><path class="cls-1" d="M142.91,98.12a1.43,1.43,0,0,1-.32-.64,2.49,2.49,0,0,1-.06-.6c0-.3,0-.55,0-.75s0-.33,0-.33a.75.75,0,0,1,.5.41c0,.27-.05.75,0,1.06A7.26,7.26,0,0,0,142.91,98.12Z" transform="translate(-96.79 -14.48)"/><path class="cls-1" d="M142.91,98.12a1.66,1.66,0,0,1-.35-.5.75.75,0,0,1-.08-.31l-.06-.3c0-.05,0-.07,0-.17v-.45c0-.2,0-.41,0-.6v-.18l.16,0a.76.76,0,0,1,.38.19,1.15,1.15,0,0,1,.25.32v.06a9.3,9.3,0,0,1-.09,1.05v0C143.07,97.57,143,97.84,142.91,98.12Zm0,0c0-.28,0-.58,0-.88v0c0-.36,0-.72,0-1.08v.07a.84.84,0,0,0-.18-.2.55.55,0,0,0-.2-.12l.17-.15c0,.21,0,.4,0,.6v.45a.55.55,0,0,0,0,.13v.31a.83.83,0,0,0,0,.28A1.49,1.49,0,0,0,142.91,98.12Z" transform="translate(-96.79 -14.48)"/><path class="cls-1" d="M143.55,96.72a2.88,2.88,0,0,0-.1-1,1.87,1.87,0,0,0-.32-.54L142.9,95l-.22-.12a1.09,1.09,0,0,0-.2-.08,4.12,4.12,0,0,0,.07.95,1.92,1.92,0,0,1,.54.51A2.82,2.82,0,0,1,143.55,96.72Z" transform="translate(-96.79 -14.48)"/><path class="cls-1" d="M143.55,96.72l-.05-.48c0-.15-.08-.3-.11-.45a3.22,3.22,0,0,0-.25-.39,1.06,1.06,0,0,0-.15-.15l-.18-.17,0,0-.2-.09s0,0,0,0h0l-.06,0-.11,0,.21-.13v.92l0-.06c.09.09.19.15.28.25l.23.31,0,0A2.36,2.36,0,0,1,143.55,96.72Zm0,0a2.63,2.63,0,0,0-.48-.42h0l-.26-.25a3.21,3.21,0,0,0-.3-.21l0,0v0l-.13-1,0-.25.25.12.1,0,.06,0,0,0,0,0,.21.14h0l.16.18a1.13,1.13,0,0,1,.15.21,2,2,0,0,1,.21.45,4.36,4.36,0,0,1,.06.49Z" transform="translate(-96.79 -14.48)"/><path class="cls-1" d="M143.93,98.47a2.21,2.21,0,0,0-.26-1.53,2.63,2.63,0,0,0-.39-.5,1.62,1.62,0,0,0-.18-.16,2.88,2.88,0,0,0-.06,1,3.77,3.77,0,0,1,.47.68A2.67,2.67,0,0,1,143.93,98.47Z" transform="translate(-96.79 -14.48)"/><path class="cls-1" d="M143.93,98.47a4.2,4.2,0,0,0-.06-.62,1.84,1.84,0,0,0-.17-.55,2,2,0,0,0-.13-.25s0-.06-.08-.11l-.1-.12-.2-.24s-.05-.06,0,0l-.06,0-.12-.1.26-.08a3.92,3.92,0,0,0-.08.9l0-.06a3.25,3.25,0,0,1,.45.72l0,0A3.52,3.52,0,0,1,143.93,98.47Zm0,0a5.37,5.37,0,0,0-.46-.48l0,0h0a5.75,5.75,0,0,0-.5-.63l0,0v0a3.88,3.88,0,0,1,0-1L143,96l.21.2.11.1.06.06.07.08.18.25.09.12a1.7,1.7,0,0,1,.1.14c0,.1.09.2.12.3a2,2,0,0,1,.1.64A4.22,4.22,0,0,1,143.93,98.47Z" transform="translate(-96.79 -14.48)"/><path class="cls-1" d="M144.2,100.31a2.32,2.32,0,0,0-.17-1.62,5.08,5.08,0,0,0-.34-.55,2.24,2.24,0,0,0-.17-.2,2.8,2.8,0,0,0-.13,1,2.85,2.85,0,0,1,.43.75A3.8,3.8,0,0,1,144.2,100.31Z" transform="translate(-96.79 -14.48)"/><path class="cls-1" d="M144.2,100.31a4.53,4.53,0,0,0,0-.64,2,2,0,0,0-.14-.59,1.69,1.69,0,0,0-.12-.28c0-.07-.11-.17-.16-.26l-.18-.27a.58.58,0,0,0-.08-.1l-.11-.12.27,0a3.25,3.25,0,0,0-.15.88l0-.07a3.42,3.42,0,0,1,.41.81l0,0A3.86,3.86,0,0,1,144.2,100.31Zm0,0a6.23,6.23,0,0,0-.43-.6l0,0h0l-.21-.36c-.08-.11-.18-.22-.26-.34l0,0v0a3.45,3.45,0,0,1,.12-1l.08-.29.19.24.1.12s.09.11.11.15l.16.28c.06.1.11.17.17.29a2,2,0,0,1,.11.32,2.21,2.21,0,0,1,.05.68A4.42,4.42,0,0,1,144.2,100.31Z" transform="translate(-96.79 -14.48)"/><path class="cls-1" d="M144.3,102.17a2.4,2.4,0,0,0,0-1.59,3.39,3.39,0,0,0-.45-.91,3.11,3.11,0,0,0-.21.9,4,4,0,0,1,.36.87A4.79,4.79,0,0,1,144.3,102.17Z" transform="translate(-96.79 -14.48)"/><path class="cls-1" d="M144.3,102.17a2.93,2.93,0,0,0,0-.66,2.57,2.57,0,0,0-.09-.61l-.11-.29-.14-.3a2.3,2.3,0,0,0-.3-.54l.28,0a3.47,3.47,0,0,0-.22.84v-.07a4.67,4.67,0,0,1,.32.91l0,0A4.7,4.7,0,0,1,144.3,102.17Zm0,0a7,7,0,0,0-.39-.67v0l-.19-.42c-.07-.13-.15-.27-.21-.4l0,0v0a3.92,3.92,0,0,1,.21-1l.09-.28.18.25a3.26,3.26,0,0,1,.31.62l.12.3a2.9,2.9,0,0,1,.09.34,2.28,2.28,0,0,1,0,.69A2.78,2.78,0,0,1,144.3,102.17Z" transform="translate(-96.79 -14.48)"/><path class="cls-1" d="M142.88,98.15a1.38,1.38,0,0,1-.31-.63,2.18,2.18,0,0,1-.06-.61c0-.29,0-.54,0-.74s0-.34,0-.34a.82.82,0,0,1,.5.41c0,.27-.06.75,0,1.06S142.88,98.15,142.88,98.15Z" transform="translate(-96.79 -14.48)"/><path class="cls-1" d="M142.88,98.15a1.66,1.66,0,0,1-.35-.5,1.29,1.29,0,0,1-.08-.31l0-.29a.72.72,0,0,1,0-.17v-.45c0-.2,0-.41,0-.6v-.18l.16,0a.8.8,0,0,1,.38.19.92.92,0,0,1,.24.31l0,0v0c0,.35-.05.69-.09,1v0C143,97.6,143,97.87,142.88,98.15Zm0,0c0-.28,0-.58,0-.88v0c0-.35,0-.71,0-1.07v.07a.72.72,0,0,0-.18-.21.68.68,0,0,0-.2-.11l.16-.15c0,.21,0,.4,0,.6v.45a.55.55,0,0,0,0,.13v.3a2.19,2.19,0,0,0,0,.28A1.69,1.69,0,0,0,142.88,98.15Z" transform="translate(-96.79 -14.48)"/><path class="cls-1" d="M143.2,99.75a1.79,1.79,0,0,1-.19-.32,2.42,2.42,0,0,1-.1-.36,3,3,0,0,1,0-.66,8,8,0,0,1,.14-1.09,1.27,1.27,0,0,1,.45.57,9.85,9.85,0,0,0-.12,1c0,.08-.06.3-.1.48Z" transform="translate(-96.79 -14.48)"/><path class="cls-1" d="M143.2,99.75,143,99.5a2.63,2.63,0,0,1-.14-.3.43.43,0,0,1,0-.17l0-.15,0-.31a.87.87,0,0,1,0-.18v-.16l0-.31.06-.62,0-.28.19.16a1.83,1.83,0,0,1,.32.3l.2.36v.06c0,.35-.1.69-.17,1v0h0C143.38,99.23,143.28,99.48,143.2,99.75Zm0,0a8.21,8.21,0,0,1,.08-.84v0c0-.35,0-.71.06-1.06v.06l-.17-.28a2,2,0,0,1-.21-.2l.22-.12-.09.62,0,.31,0,.15V99s0,.06,0,.13a1.33,1.33,0,0,0,.06.3Z" transform="translate(-96.79 -14.48)"/><path class="cls-1" d="M143.35,101.37a2.18,2.18,0,0,1-.17-1.37c0-.28.09-.53.13-.72l.07-.32a1.24,1.24,0,0,1,.41.65c0,.25-.16.69-.19,1A7.15,7.15,0,0,0,143.35,101.37Z" transform="translate(-96.79 -14.48)"/><path class="cls-1" d="M143.35,101.37a2.1,2.1,0,0,1-.25-.57,2,2,0,0,1-.06-.64,4.2,4.2,0,0,1,.08-.62l.1-.61.05-.29.19.19a1.92,1.92,0,0,1,.3.34l.17.4v.06c-.07.33-.16.66-.25,1v0h0C143.58,100.89,143.46,101.13,143.35,101.37Zm0,0c.06-.26.1-.53.17-.8v0c0-.34.08-.68.14-1v.06l-.16-.31c-.06-.08-.14-.14-.21-.23l.24-.11-.25,1.2a1.89,1.89,0,0,0,0,.58A2.53,2.53,0,0,0,143.35,101.37Z" transform="translate(-96.79 -14.48)"/><path class="cls-1" d="M143.42,103.08a2.22,2.22,0,0,1-.09-1.46,8.13,8.13,0,0,1,.29-1,1.79,1.79,0,0,1,.35.76,7.58,7.58,0,0,0-.27,1A5.33,5.33,0,0,0,143.42,103.08Z" transform="translate(-96.79 -14.48)"/><path class="cls-1" d="M143.42,103.08a2.34,2.34,0,0,1-.23-.59,2.1,2.1,0,0,1,0-.66,3.3,3.3,0,0,1,.13-.64l.17-.61.08-.32.18.26a3.45,3.45,0,0,1,.25.41l.13.43v.06c-.08.32-.2.63-.31.94v0h0C143.67,102.63,143.54,102.85,143.42,103.08Zm0,0c.06-.25.12-.52.2-.78v0c.07-.32.13-.65.22-1v.06l-.13-.36c-.06-.11-.13-.2-.19-.31l.26-.07c-.12.4-.27.82-.37,1.2a2.32,2.32,0,0,0-.06.59A2.64,2.64,0,0,0,143.42,103.08Z" transform="translate(-96.79 -14.48)"/><path class="cls-1" d="M144.3,102.17a2.4,2.4,0,0,0,0-1.59,3.21,3.21,0,0,0-.45-.9,3,3,0,0,0-.21.89,4.57,4.57,0,0,1,.36.87A4.79,4.79,0,0,1,144.3,102.17Z" transform="translate(-96.79 -14.48)"/><path class="cls-1" d="M144.3,102.17a2.88,2.88,0,0,0,0-.65,2.59,2.59,0,0,0-.1-.62l-.1-.29-.14-.3a3,3,0,0,0-.3-.54l.27,0a4,4,0,0,0-.21.84l0-.07a4.1,4.1,0,0,1,.32.91l0,0A4,4,0,0,1,144.3,102.17Zm0,0c-.12-.25-.27-.46-.39-.67v0l-.18-.41-.22-.41v-.07a3.91,3.91,0,0,1,.2-1l.1-.28.17.25a2.76,2.76,0,0,1,.31.62l.13.3a2.9,2.9,0,0,1,.09.34,2.28,2.28,0,0,1,0,.69A2.64,2.64,0,0,1,144.3,102.17Z" transform="translate(-96.79 -14.48)"/><path class="cls-1" d="M144.32,104a2.3,2.3,0,0,0,0-1.55,4.72,4.72,0,0,0-.38-1,2.65,2.65,0,0,0-.27.85,5.19,5.19,0,0,1,.31.92A4.78,4.78,0,0,1,144.32,104Z" transform="translate(-96.79 -14.48)"/><path class="cls-1" d="M144.32,104a2.86,2.86,0,0,0,.06-.65,2.13,2.13,0,0,0-.08-.61l0-.16a1.21,1.21,0,0,0,0-.14l-.11-.3a3.89,3.89,0,0,0-.26-.58h.28a2.58,2.58,0,0,0-.27.78v-.07c.11.32.18.64.27,1l0,0A5.11,5.11,0,0,1,144.32,104Zm0,0c-.11-.25-.25-.47-.37-.69h0v0c-.12-.3-.26-.59-.36-.89v-.06a3.06,3.06,0,0,1,.28-.92l.13-.27.14.28a3.3,3.3,0,0,1,.25.63l.1.31a.59.59,0,0,1,0,.17l0,.17a2.28,2.28,0,0,1,0,.69A2.67,2.67,0,0,1,144.32,104Z" transform="translate(-96.79 -14.48)"/><path class="cls-1" d="M144.31,105.78a2.37,2.37,0,0,0,.07-1.52,5.89,5.89,0,0,0-.35-1,2.11,2.11,0,0,0-.3.82,6.62,6.62,0,0,1,.29.94A5.68,5.68,0,0,1,144.31,105.78Z" transform="translate(-96.79 -14.48)"/><path class="cls-1" d="M144.31,105.78a2.79,2.79,0,0,0,.07-.64,2.54,2.54,0,0,0-.07-.61l0-.15a.58.58,0,0,0-.05-.14l-.11-.3-.23-.61.27,0c-.05.12-.11.23-.17.35l-.11.39v-.06c.1.32.17.65.25,1l0,0C144.18,105.26,144.24,105.53,144.31,105.78Zm0,0c-.12-.24-.26-.46-.36-.69h0v0c-.11-.3-.24-.6-.34-.91v-.06l.11-.46c.06-.15.13-.29.2-.44l.16-.32.11.36.21.62.1.31a.53.53,0,0,1,0,.17l0,.17a2.6,2.6,0,0,1,0,.68A2.94,2.94,0,0,1,144.31,105.78Z" transform="translate(-96.79 -14.48)"/><path class="cls-1" d="M144.33,107.53a2.29,2.29,0,0,0,0-1.48,6.35,6.35,0,0,0-.35-1,2.06,2.06,0,0,0-.3.82,8.54,8.54,0,0,1,.3.93A6.43,6.43,0,0,1,144.33,107.53Z" transform="translate(-96.79 -14.48)"/><path class="cls-1" d="M144.33,107.53a2.68,2.68,0,0,0,0-.63,2.06,2.06,0,0,0-.08-.6l0-.15a1.12,1.12,0,0,0,0-.13l-.11-.3-.22-.6.27,0c-.05.12-.12.23-.18.35l-.11.39v-.06c.11.32.17.65.26,1l0,0C144.18,107,144.25,107.29,144.33,107.53Zm0,0c-.13-.22-.27-.44-.38-.66h0v0c-.12-.31-.26-.6-.35-.91l0,0v0l.11-.46a4.39,4.39,0,0,1,.21-.44l.16-.3.11.35.2.6.1.3a.85.85,0,0,1,0,.17l0,.17a2.09,2.09,0,0,1,0,.66A2.43,2.43,0,0,1,144.33,107.53Z" transform="translate(-96.79 -14.48)"/><path class="cls-1" d="M143.39,103.1a2.22,2.22,0,0,1-.09-1.46,7.5,7.5,0,0,1,.29-1,1.64,1.64,0,0,1,.35.75,8.67,8.67,0,0,0-.27,1A5.36,5.36,0,0,0,143.39,103.1Z" transform="translate(-96.79 -14.48)"/><path class="cls-1" d="M143.39,103.1a2.57,2.57,0,0,1-.23-.6,2.09,2.09,0,0,1,0-.66,3.2,3.2,0,0,1,.13-.63l.17-.61.09-.32.17.25a4.5,4.5,0,0,1,.25.41l.13.44v.06c-.08.31-.2.62-.31.93v0h0C143.64,102.64,143.51,102.86,143.39,103.1Zm0,0c.06-.26.12-.52.2-.79v0c.07-.33.13-.66.22-1v.06l-.13-.36c-.06-.11-.13-.2-.19-.31l.26-.07c-.12.4-.27.82-.37,1.19a2.45,2.45,0,0,0-.06.6A2.7,2.7,0,0,0,143.39,103.1Z" transform="translate(-96.79 -14.48)"/><path class="cls-1" d="M143.4,104.86a2.29,2.29,0,0,1-.05-1.5,5.88,5.88,0,0,1,.34-1,2.17,2.17,0,0,1,.31.81,6.74,6.74,0,0,0-.31.93A5.65,5.65,0,0,0,143.4,104.86Z" transform="translate(-96.79 -14.48)"/><path class="cls-1" d="M143.4,104.86a2.44,2.44,0,0,1-.21-.61,2.14,2.14,0,0,1,0-.67l0-.16a.59.59,0,0,1,0-.17l.1-.3.2-.61.11-.34.16.29a3.55,3.55,0,0,1,.21.44l.11.45v.07c-.1.3-.23.6-.35.9v0C143.66,104.41,143.52,104.63,143.4,104.86Zm0,0c.07-.25.13-.52.22-.78v0c.08-.32.15-.64.25-1v.06l-.12-.39-.18-.34.27,0-.22.59-.11.3a.78.78,0,0,0-.05.14l0,.15a2.05,2.05,0,0,0-.07.6A2.25,2.25,0,0,0,143.4,104.86Z" transform="translate(-96.79 -14.48)"/><path class="cls-1" d="M143.4,106.67a2.37,2.37,0,0,1-.05-1.55,6.07,6.07,0,0,1,.35-1,2.22,2.22,0,0,1,.3.83,6.31,6.31,0,0,0-.31.93A5.21,5.21,0,0,0,143.4,106.67Z" transform="translate(-96.79 -14.48)"/><path class="cls-1" d="M143.4,106.67a3.26,3.26,0,0,1-.22-.62,2.59,2.59,0,0,1,0-.68l0-.17a1.09,1.09,0,0,1,.05-.17l.1-.31.22-.62.12-.35.15.32c.07.14.14.29.2.44l.11.46V105c-.1.3-.23.59-.35.89v0h0C143.65,106.19,143.51,106.42,143.4,106.67Zm0,0a5,5,0,0,1,.22-.8l0,0c.09-.31.16-.64.27-1V105l-.11-.4c-.06-.12-.12-.24-.17-.36l.27,0-.24.6-.12.3c0,.06,0,.08,0,.14l0,.15a2.13,2.13,0,0,0-.08.61A2.94,2.94,0,0,0,143.4,106.67Z" transform="translate(-96.79 -14.48)"/><path class="cls-1" d="M143.47,108.53a2.4,2.4,0,0,1-.11-1.6,4.93,4.93,0,0,1,.35-1,2.22,2.22,0,0,1,.3.83,5.44,5.44,0,0,0-.28,1,2.26,2.26,0,0,0-.17.45C143.51,108.35,143.47,108.53,143.47,108.53Z" transform="translate(-96.79 -14.48)"/><path class="cls-1" d="M143.47,108.53a3.06,3.06,0,0,1-.25-.63,2.64,2.64,0,0,1,.12-1.37,4.73,4.73,0,0,1,.23-.66l.13-.3.14.28c.07.14.14.29.2.44l.11.46v0l0,0c-.09.31-.21.61-.33.92v0h0C143.7,108,143.56,108.25,143.47,108.53Zm0,0a3.88,3.88,0,0,1,.18-.86v0c.07-.33.14-.66.24-1v.07l-.11-.4-.18-.36.27,0a3.56,3.56,0,0,0-.23.6,4,4,0,0,0-.19.62,2.78,2.78,0,0,0-.06.64A3.11,3.11,0,0,0,143.47,108.53Z" transform="translate(-96.79 -14.48)"/><path class="cls-1" d="M144.32,107.54a2.4,2.4,0,0,0,.05-1.49,6.35,6.35,0,0,0-.35-1,2.06,2.06,0,0,0-.3.82,8.54,8.54,0,0,1,.3.93A6,6,0,0,1,144.32,107.54Z" transform="translate(-96.79 -14.48)"/><path class="cls-1" d="M144.32,107.54a2.83,2.83,0,0,0,.06-.64,2.06,2.06,0,0,0-.08-.6l0-.15,0-.13-.11-.3-.23-.6.28,0-.18.35-.11.39v-.06c.1.32.17.65.25,1v0C144.18,107,144.25,107.29,144.32,107.54Zm0,0c-.13-.23-.26-.45-.37-.67h0v0c-.12-.31-.25-.6-.35-.91v-.06l.11-.46c.06-.15.13-.29.2-.44l.16-.3.12.35.2.6.1.3a.85.85,0,0,1,0,.17l0,.17a2.43,2.43,0,0,1,0,.66A2.67,2.67,0,0,1,144.32,107.54Z" transform="translate(-96.79 -14.48)"/><path class="cls-1" d="M144.43,109.19a2.21,2.21,0,0,0,0-1.4,6.87,6.87,0,0,0-.37-.94,2,2,0,0,0-.28.84,8.18,8.18,0,0,1,.34.9,1.86,1.86,0,0,1,.21.35Z" transform="translate(-96.79 -14.48)"/><path class="cls-1" d="M144.43,109.19a2,2,0,0,0,0-.6,1.92,1.92,0,0,0-.11-.57c-.06-.19-.14-.35-.22-.55l-.23-.56.27,0c-.05.12-.12.23-.17.35l-.1.4v-.06c.11.31.19.62.29.93l0,0A6.06,6.06,0,0,1,144.43,109.19Zm0,0-.41-.54v0c-.13-.29-.28-.58-.39-.87l0,0v0l.09-.47c.06-.15.13-.3.2-.45l.15-.3.13.33.21.58a3.39,3.39,0,0,1,.18.59,2,2,0,0,1,0,.64A2.34,2.34,0,0,1,144.43,109.19Z" transform="translate(-96.79 -14.48)"/><path class="cls-1" d="M144.76,110.49a2,2,0,0,0,0-.65,1.77,1.77,0,0,0-.19-.44c-.21-.41-.44-.78-.44-.78a2.13,2.13,0,0,0-.21.9c.1.2.34.51.46.73,0,0,.16.11.26.16Z" transform="translate(-96.79 -14.48)"/><path class="cls-1" d="M144.76,110.49a3.71,3.71,0,0,0-.09-.5,2.2,2.2,0,0,0-.21-.44.45.45,0,0,1-.05-.1l-.07-.11-.13-.21-.26-.44h.27c0,.13-.1.26-.14.39l-.07.43v-.06c.14.24.26.5.39.75l0,0A2,2,0,0,0,144.76,110.49Zm0,0a2.1,2.1,0,0,1-.46-.18h0l0,0c-.17-.23-.35-.46-.51-.7l0,0v0l.05-.5a3.9,3.9,0,0,1,.17-.48l.12-.28.15.28.24.45.11.22.06.12.05.13a2,2,0,0,1,.13.51A3.05,3.05,0,0,1,144.76,110.49Z" transform="translate(-96.79 -14.48)"/><path class="cls-1" d="M145.38,118.67a33,33,0,0,0-.37-7.44,1.17,1.17,0,0,0-.5-.84.8.8,0,0,1-.17-.12,1.64,1.64,0,0,0,0,1c.16.12.35.4.53.49C145.81,112.89,145.38,118.67,145.38,118.67Z" transform="translate(-96.79 -14.48)"/><path class="cls-1" d="M145.38,118.67a29.82,29.82,0,0,0-.08-4.23q-.09-1.05-.24-2.1l-.16-1a1.1,1.1,0,0,0-.48-.78h0l-.2-.14.24-.06a1.87,1.87,0,0,0,0,.88l-.05-.06c.22.18.33.4.49.52l0,0h0a2.26,2.26,0,0,1,.34.84,8.49,8.49,0,0,1,.14.88c.05.58.07,1.17.08,1.75C145.53,116.33,145.47,117.5,145.38,118.67Zm0,0c.06-1.17.08-2.34,0-3.51a17,17,0,0,0-.13-1.74,3.81,3.81,0,0,0-.46-1.62l0,0a2.92,2.92,0,0,1-.58-.45l0,0v0a1.77,1.77,0,0,1,0-1.09l.06-.19.19.13.14.1h0a1.36,1.36,0,0,1,.39.44,1.3,1.3,0,0,1,.15.56l.13,1c.09.7.16,1.4.2,2.11A30,30,0,0,1,145.38,118.67Z" transform="translate(-96.79 -14.48)"/><path class="cls-1" d="M143.44,108.54a2.37,2.37,0,0,1-.11-1.59,4.89,4.89,0,0,1,.35-1,2.22,2.22,0,0,1,.3.83,5.44,5.44,0,0,0-.28,1,2.42,2.42,0,0,0-.17.46C143.48,108.37,143.44,108.54,143.44,108.54Z" transform="translate(-96.79 -14.48)"/><path class="cls-1" d="M143.44,108.54a2.67,2.67,0,0,1-.25-.63,2.74,2.74,0,0,1,0-.7,2.85,2.85,0,0,1,.15-.67,4,4,0,0,1,.23-.66l.13-.29.14.27c.07.15.14.29.2.44l.11.46v0l0,0c-.09.31-.21.62-.32.93l0,0h0C143.67,108,143.53,108.27,143.44,108.54Zm0,0a3.8,3.8,0,0,1,.18-.85v0c.07-.32.14-.66.24-1v.07l-.11-.4-.18-.35.27,0a3.75,3.75,0,0,0-.24.6,5.34,5.34,0,0,0-.18.62,2.24,2.24,0,0,0-.05.63A2.5,2.5,0,0,0,143.44,108.54Z" transform="translate(-96.79 -14.48)"/><path class="cls-1" d="M143.71,110.53a2.32,2.32,0,0,1-.29-1.69,4.7,4.7,0,0,1,.29-1.07,2.13,2.13,0,0,1,.34.78,4.38,4.38,0,0,0-.2,1,2.62,2.62,0,0,0-.11.53C143.72,110.32,143.71,110.53,143.71,110.53Z" transform="translate(-96.79 -14.48)"/><path class="cls-1" d="M143.71,110.53a2.56,2.56,0,0,1-.3-.65,2.27,2.27,0,0,1-.11-.73,4.29,4.29,0,0,1,.09-.73,4.45,4.45,0,0,1,.18-.72h0l.13-.31.14.28c.07.14.14.28.2.42l.12.44v0a6,6,0,0,0-.26,1h0A4.75,4.75,0,0,0,143.71,110.53Zm0,0a4.64,4.64,0,0,1,.09-1v0a6.18,6.18,0,0,1,.15-1v0l-.15-.38c-.07-.11-.14-.22-.2-.33l.27,0h0a3.11,3.11,0,0,0-.23.65,3.56,3.56,0,0,0-.17.68,2.65,2.65,0,0,0,0,.69A2.48,2.48,0,0,0,143.71,110.53Z" transform="translate(-96.79 -14.48)"/><path class="cls-1" d="M144.57,112.23l-.15,0-.07,0-.09-.07a1.24,1.24,0,0,1-.29-.38,2.59,2.59,0,0,1-.22-.87,3.69,3.69,0,0,1,0-.93,2.07,2.07,0,0,1,.07-.34,2.22,2.22,0,0,1,.43.62,3,3,0,0,0,.07,1.1,2,2,0,0,0,.12.57Z" transform="translate(-96.79 -14.48)"/><path class="cls-1" d="M144.57,112.23a.6.6,0,0,1-.23,0h0a1.6,1.6,0,0,1-.28-.22l-.12-.14a1,1,0,0,1-.09-.17,2.42,2.42,0,0,1-.21-.69.4.4,0,0,1,0-.19v-.7a1.72,1.72,0,0,1,0-.2l.07-.34.06-.3.2.22a3.15,3.15,0,0,1,.45.69l0,0v0c0,.17,0,.35,0,.53l0,.52h0v0C144.5,111.6,144.51,111.92,144.57,112.23Zm0,0a7.63,7.63,0,0,1-.3-.92v0l-.13-.57a5.42,5.42,0,0,1,0-.57v.07a2.58,2.58,0,0,0-.41-.57l.26-.08-.07.34,0,.32,0,.34v.18a.39.39,0,0,0,0,.15,2.31,2.31,0,0,0,.12.66.59.59,0,0,0,.06.14l.06.15a1.88,1.88,0,0,0,.22.26h0A.83.83,0,0,0,144.57,112.23Z" transform="translate(-96.79 -14.48)"/><path class="cls-1" d="M145.08,119.24c.3-4.07,0-5.85-.4-6.82a5.58,5.58,0,0,1-.29-1.11C145.86,111.92,145.08,119.24,145.08,119.24Z" transform="translate(-96.79 -14.48)"/><path class="cls-1" d="M145.08,119.24a35.76,35.76,0,0,0,0-4,10.75,10.75,0,0,0-.27-2,7.89,7.89,0,0,0-.3-.94c-.06-.17-.11-.33-.16-.49l-.06-.25,0-.13v-.15s.08-.17.14-.16l.08,0a1.43,1.43,0,0,1,.65.91,7.39,7.39,0,0,1,.21,1,15.87,15.87,0,0,1,.1,2.06A30.89,30.89,0,0,1,145.08,119.24Zm0,0c.07-1.36.11-2.72.08-4.08a19.39,19.39,0,0,0-.14-2,6.19,6.19,0,0,0-.21-1,1.19,1.19,0,0,0-.48-.71h.07c.06,0,.16-.12.14-.15h0v.08l0,.12,0,.24c0,.16.08.32.13.48a9.87,9.87,0,0,1,.27,1,12.5,12.5,0,0,1,.23,2A31.65,31.65,0,0,1,145.08,119.24Z" transform="translate(-96.79 -14.48)"/><path class="cls-1" d="M124.12,46.87l1.14-.22.79-.13c.22,0,.13-.05.13-.05l0,.32-.92.05Z" transform="translate(-96.79 -14.48)"/><path class="cls-1" d="M127.92,46.34s-.09,0,.14,0H130l-.06.45s.08,0-.15,0h-1.84Z" transform="translate(-96.79 -14.48)"/><path class="cls-1" d="M131.66,46.31a25.3,25.3,0,0,1,2.67.21c.61.12,1.22.27,1.22.27s-.63,0-1.25-.06-2.75-.06-2.75-.06Z" transform="translate(-96.79 -14.48)"/></svg>