<svg id="Capa_1" data-name="Capa 1" xmlns="http://www.w3.org/2000/svg" viewBox="0 0 417.35 115.98"><defs><style>.cls-1{fill:#1d1d1b;}</style></defs><title>Logo TEXTO NEGRO - Sin fondo</title><path class="cls-1" d="M501.93,145.78a1.3,1.3,0,0,1,.11-.61,2.91,2.91,0,0,1,.35-.62,3.92,3.92,0,0,1,.43-.46q.21-.18.33-.15a.25.25,0,0,1,.15.18.7.7,0,0,1,0,.33c0,.12-.05.26-.09.41a2.61,2.61,0,0,1-.16.42,1.38,1.38,0,0,1-.41.61.66.66,0,0,0,0,.41.29.29,0,0,0,.32.19,3.1,3.1,0,0,0,1.24-.35c.42-.22.82-.4,1.19-.55l-.09.16-.19.33-.22.35a1.58,1.58,0,0,0-.12.2,2.46,2.46,0,0,1-.54.36,5.1,5.1,0,0,1-.82.31,1.63,1.63,0,0,1-.82,0,.69.69,0,0,1-.5-.56c-.34.67-.68,1.32-1,1.95a10.25,10.25,0,0,1-1.19,1.76,6.47,6.47,0,0,1-.47.5,6,6,0,0,1-.62.53,2.51,2.51,0,0,1-.68.33.82.82,0,0,1-.62,0,.58.58,0,0,1-.31-.53,2.68,2.68,0,0,1,.08-.9,7.62,7.62,0,0,1,.34-1.1c.14-.39.3-.76.45-1.11s.31-.65.45-.91l.27-.55c.31-.61.61-1.2.91-1.77l.91-1.73c.55-1,1.08-2,1.6-3A27.12,27.12,0,0,1,504,137.3l.18-.24a1.11,1.11,0,0,1,.19-.22,1.4,1.4,0,0,1,.61-.42c.2-.06.3,0,.3.13a2.93,2.93,0,0,1-.23.55l-.42.88c-.16.3-.3.59-.44.85s-.23.43-.27.48c-.56,1-1.13,1.93-1.71,2.9s-1.18,1.95-1.77,2.95c-.39.72-.78,1.44-1.15,2.14a18.18,18.18,0,0,0-1,2.24c-.25.74-.33,1.17-.22,1.31s.36,0,.78-.3a6.91,6.91,0,0,0,.94-1.09c.33-.47.64-1,.93-1.45s.55-.95.77-1.37S501.87,145.93,501.93,145.78Z" transform="translate(-208.69 -43.66)"/><path class="cls-1" d="M502.82,148.68a17.47,17.47,0,0,1,1.3-2,15.37,15.37,0,0,1,1.62-1.89s.09,0,.24,0h.46a2,2,0,0,1,.38,0c.1,0,.1,0,0,0a10.16,10.16,0,0,0-.93.93c-.33.37-.64.75-.94,1.14s-.55.75-.78,1.09l-.48.74-.3.57a4.07,4.07,0,0,0-.27.56,2.28,2.28,0,0,0-.17.5.72.72,0,0,0,0,.36c.06.15.23.11.52-.11a9.16,9.16,0,0,0,1-1c.4-.42.83-.89,1.29-1.42s.89-1,1.29-1.51.74-.9,1-1.26a6.57,6.57,0,0,1,.5-.61h.92l-.63.79-.87,1.11L507,148l-1,1.23q-.19.28-.39.63c-.13.22-.26.44-.38.66l-.34.64q-.17.31-.3.54a.15.15,0,0,0,0,.06l2.29-1.7c.74-.56,1.38-1.08,1.93-1.57l.1.93c-.18.16-.4.33-.65.53l-.85.63-1,.7c-.35.24-.69.5-1,.77s-.58.47-.86.68-.55.42-.8.63l-.78,1.57c-.25.51-.53,1-.83,1.5a13.74,13.74,0,0,1-1,1.41,9.41,9.41,0,0,1-1.19,1.26,3.46,3.46,0,0,1-.58.43,1,1,0,0,1-.5.16.44.44,0,0,1-.35-.24,1.76,1.76,0,0,1-.13-.76,2.46,2.46,0,0,1,.22-.94c.15-.32.29-.61.42-.85a4.72,4.72,0,0,1,.67-1,12,12,0,0,1,1-1c.38-.36.79-.71,1.24-1.07l1.39-1.1.79-1.41,0-.08-.46.32a2.54,2.54,0,0,1-.53.25,1.32,1.32,0,0,1-.51.06.54.54,0,0,1-.39-.26,1.59,1.59,0,0,1-.1-1.21A6.49,6.49,0,0,1,502.82,148.68Zm-1.54,7.59.54-.94c.17-.32.35-.63.52-.94-.47.39-.91.8-1.34,1.23a12.59,12.59,0,0,0-1.27,1.52,4.59,4.59,0,0,0-.31.57,4.67,4.67,0,0,0-.23.64c0,.18,0,.26.09.23a1,1,0,0,0,.35-.25,4.8,4.8,0,0,0,.49-.55c.18-.22.36-.44.52-.65s.32-.4.43-.56S501.26,156.31,501.28,156.27Z" transform="translate(-208.69 -43.66)"/><path class="cls-1" d="M539.2,142.71c-.52.69-1,1.41-1.56,2.15s-1,1.5-1.5,2.29-.91,1.6-1.31,2.43a18.52,18.52,0,0,0-1,2.59,13.8,13.8,0,0,0-.37,1.6,5.27,5.27,0,0,0,0,1.58,3,3,0,0,0,.52,1.32,2.41,2.41,0,0,0,1.31.85l-1.48,0a1.49,1.49,0,0,1-.88-.77,3.41,3.41,0,0,1-.35-1.26,6.67,6.67,0,0,1,0-1.41,9.26,9.26,0,0,1,.21-1.25,16.94,16.94,0,0,1,1-2.94,28.23,28.23,0,0,1,1.43-2.79q.79-1.37,1.68-2.64c.59-.85,1.18-1.66,1.76-2.45l1.39-1.89q.69-.93,1.38-1.89a1.85,1.85,0,0,0,.42-.74c0-.14,0-.22-.14-.24a.81.81,0,0,0-.43.07l-.49.19c-.31.14-.62.3-.92.46l-.88.53c-.37.22-.74.44-1.1.68s-.72.49-1.07.75l-1.25.92c-.41.31-.82.63-1.23,1-.92.72-1.83,1.47-2.74,2.26s-1.79,1.58-2.64,2.39c-.61.57-1.21,1.17-1.79,1.81s-1.16,1.29-1.74,1.95-1.16,1.32-1.74,2-1.17,1.24-1.77,1.8a3.34,3.34,0,0,1-1.36.91.38.38,0,0,1-.5-.36,3,3,0,0,1,.23-1.26,10.37,10.37,0,0,1,.84-1.78c.47-.82,1-1.67,1.64-2.55s1.31-1.8,2-2.73,1.51-1.87,2.31-2.84,1.62-1.93,2.45-2.9l2.45-2.9c.81-1,1.58-1.9,2.31-2.83.41-.5.57-.85.5-1s-.38-.33-.94-.44a12.19,12.19,0,0,0-2.21-.15,17.68,17.68,0,0,0-2.3.18c-.77.11-1.52.25-2.25.41s-1.42.32-2.05.49a29.22,29.22,0,0,0-3.7,1.34,25.92,25.92,0,0,0-3.51,1.9,10.26,10.26,0,0,0-1.07.7,7.37,7.37,0,0,0-1,.91,6,6,0,0,0-.84,1.1,4.1,4.1,0,0,0-.52,1.25,3.7,3.7,0,0,0,0,1.37,4,4,0,0,0,.56,1.47l-1.32-1.16a4,4,0,0,1,0-2.16,5.84,5.84,0,0,1,.92-1.79,8.79,8.79,0,0,1,1.42-1.44,18.08,18.08,0,0,1,1.55-1.1,25.06,25.06,0,0,1,3.56-1.88,31.68,31.68,0,0,1,4.28-1.5c.73-.19,1.45-.37,2.15-.53a18.94,18.94,0,0,1,2.13-.36,16,16,0,0,1,4.63.1c.84.13,1.33.43,1.46.9s-.1,1.08-.7,1.84l-1.6,2.05q-.78,1-1.62,2c-.85,1-1.72,2.07-2.61,3.08s-1.76,2-2.62,3.08-1.69,2.11-2.5,3.21a39.42,39.42,0,0,0-2.28,3.44l-.39.69c-.11.22-.19.4-.24.53s-.06.21,0,.23.12,0,.26-.2c.5-.54,1-1.12,1.57-1.74l1.7-1.91c.59-.66,1.2-1.32,1.83-2s1.3-1.33,2-2c1.28-1.18,2.57-2.33,3.88-3.43s2.65-2.14,4-3.13l.79-.55,1.19-.75c.42-.26.83-.5,1.23-.73s.73-.4,1-.5a3.64,3.64,0,0,1,1.06-.33,1.76,1.76,0,0,1,.78.05.77.77,0,0,1,.46.4.94.94,0,0,1,0,.69,2,2,0,0,1-.18.44,3,3,0,0,1-.27.47c-.09.15-.18.28-.26.4l-.16.23c-.46.63-.92,1.26-1.39,1.88Z" transform="translate(-208.69 -43.66)"/><path class="cls-1" d="M543,144.64a.73.73,0,0,1,.51.47,1.63,1.63,0,0,1,0,.79,4.68,4.68,0,0,1-.37,1c-.18.35-.37.69-.57,1a7,7,0,0,1-.94,1.24c0,.14,0,.27,0,.38a.53.53,0,0,0,.07.25.17.17,0,0,0,.18.07.67.67,0,0,0,.32-.12c.31-.22.62-.46.92-.71l.67-.57.08.85-.77.65a7.32,7.32,0,0,1-1,.74.68.68,0,0,1-.78.08,1.53,1.53,0,0,1-.52-.75c-.27.26-.58.53-.92.81a6.52,6.52,0,0,1-1,.7,2.34,2.34,0,0,1-.92.33.63.63,0,0,1-.65-.33,1.33,1.33,0,0,1-.15-.91,4.51,4.51,0,0,1,.34-1.22,9,9,0,0,1,.73-1.35,10.71,10.71,0,0,1,1-1.31,9.84,9.84,0,0,1,1-1,7.86,7.86,0,0,1,1-.73,4.07,4.07,0,0,1,1-.4A1.53,1.53,0,0,1,543,144.64Zm-1.36,2.41a1.9,1.9,0,0,1,.11.68,8.07,8.07,0,0,0,.45-.72c.13-.21.23-.4.31-.56a1.84,1.84,0,0,0,.21-.71.35.35,0,0,0-.14-.33.56.56,0,0,0-.39,0,3,3,0,0,0-.54.24,6.91,6.91,0,0,0-1.75,1.45,14,14,0,0,0-1.5,2.11,5.82,5.82,0,0,0-.5,1.11c-.1.34-.08.54.08.61a.78.78,0,0,0,.46,0,2.83,2.83,0,0,0,.61-.35,8,8,0,0,0,.72-.58,10.4,10.4,0,0,0,.75-.74,3.36,3.36,0,0,1,0-1.18,3.08,3.08,0,0,1,.27-.91c.13-.23.27-.37.43-.4S541.49,146.78,541.62,147.05Z" transform="translate(-208.69 -43.66)"/><path class="cls-1" d="M544.08,149.35a3.11,3.11,0,0,0-.22.86.89.89,0,0,0,.12.63.48.48,0,0,0,.46.14,2.58,2.58,0,0,0,.67-.14,6,6,0,0,0,.82-.44c.29-.17.57-.36.86-.57l.85-.67.8-.68.15.78-1,.86a12.37,12.37,0,0,1-1.28,1,6,6,0,0,1-1.35.69,1.56,1.56,0,0,1-1.22,0,1,1,0,0,1-.61-.9,4.33,4.33,0,0,1,.15-1.59,7.92,7.92,0,0,1,.5-1.29,9.32,9.32,0,0,1,.84-1.46,7.25,7.25,0,0,1,1.08-1.25,2.81,2.81,0,0,1,1.24-.69.81.81,0,0,1,1,.54,1.53,1.53,0,0,1,.05.65,1.56,1.56,0,0,1-.25.64,4.49,4.49,0,0,1-.68.76c-.29.27-.6.54-.94.8s-.69.51-1.05.74S544.37,149.18,544.08,149.35Zm.9-1.85-.16.29c-.06.09-.11.18-.17.29.25-.14.52-.31.8-.5a6.05,6.05,0,0,0,.84-.66,5.33,5.33,0,0,0,.66-.72,1.24,1.24,0,0,0,.28-.67c0-.11,0-.16-.16-.17a.92.92,0,0,0-.48.21,3.9,3.9,0,0,0-.43.36c-.31.35-.56.64-.72.86S545.12,147.25,545,147.5Z" transform="translate(-208.69 -43.66)"/><path class="cls-1" d="M549.82,151.23a7.24,7.24,0,0,1-.91.54.93.93,0,0,1-.83,0,.6.6,0,0,1-.31-.53,3.33,3.33,0,0,1,.08-.9,7.62,7.62,0,0,1,.34-1.1c.15-.39.3-.76.46-1.11s.3-.65.44-.91.23-.45.27-.55c.31-.61.61-1.2.91-1.77l.91-1.73c.55-1,1.08-2,1.6-3a25.67,25.67,0,0,1,1.77-2.91l.17-.24a1.11,1.11,0,0,1,.19-.22,1.46,1.46,0,0,1,.61-.42c.21-.06.31,0,.31.13a3.89,3.89,0,0,1-.23.55l-.43.88c-.15.3-.3.59-.44.85s-.23.43-.26.48c-.56,1-1.13,1.93-1.72,2.9s-1.17,1.95-1.76,2.95c-.4.72-.78,1.44-1.16,2.14a19.81,19.81,0,0,0-1,2.24c-.25.74-.32,1.18-.21,1.34s.37.06.8-.27a7.47,7.47,0,0,0,.62-.45c.26-.19.51-.4.78-.62l.74-.62.55-.48.07.85c-.11.11-.26.23-.44.38l-.59.48-.66.54Z" transform="translate(-208.69 -43.66)"/><path class="cls-1" d="M552.59,150.55c.16-.1.35-.25.6-.44l.75-.59.75-.61.56-.47.09.85c-.18.15-.4.34-.65.57l-.82.73c-.28.24-.56.47-.83.67a3.26,3.26,0,0,1-.71.43.77.77,0,0,1-.54.06.62.62,0,0,1-.33-.31,1.41,1.41,0,0,1-.12-.57,2.39,2.39,0,0,1,.09-.73,9.72,9.72,0,0,1,.56-1.55c.24-.54.5-1.05.78-1.55s.56-1,.84-1.39l.74-1.09a2,2,0,0,1,.48,0,2.41,2.41,0,0,0,.47,0,7,7,0,0,0-.69.9c-.29.44-.6.94-.92,1.5s-.61,1.11-.87,1.68a6.89,6.89,0,0,0-.55,1.48.8.8,0,0,0,0,.48C552.29,150.69,552.41,150.68,552.59,150.55Zm2.78-8.69a1.15,1.15,0,0,1,.27-.77.81.81,0,0,1,1.3,0,1.19,1.19,0,0,1,0,1.53.82.82,0,0,1-1.3,0A1.14,1.14,0,0,1,555.37,141.86Z" transform="translate(-208.69 -43.66)"/><path class="cls-1" d="M560.69,144.83a.52.52,0,0,1,.17.29,1.54,1.54,0,0,1,0,.43,2.14,2.14,0,0,1-.17.48,2.56,2.56,0,0,1-.33.48,2.3,2.3,0,0,1-.39.05h-.4a2.06,2.06,0,0,0,.33-.58.6.6,0,0,0,0-.42.32.32,0,0,0-.32-.16,1.39,1.39,0,0,0-.63.23l-.5.31-.46.35a7.31,7.31,0,0,0-.64.6c-.21.21-.42.42-.64.66-.07.09-.21.27-.41.56s-.4.59-.6.92a6.36,6.36,0,0,0-.45,1c-.11.31-.11.53,0,.67a.25.25,0,0,0,.31.06,1.52,1.52,0,0,0,.48-.28,7.24,7.24,0,0,0,.58-.49c.2-.19.41-.39.6-.6a7.66,7.66,0,0,0,.59-.66c.2-.23.39-.45.56-.67l.49-.62.37-.5.85.06c-.16.18-.31.38-.47.59s-.33.45-.52.68-.31.52-.49.86-.31.65-.42.92a1.57,1.57,0,0,0-.13.6c0,.13.15.1.39-.08l.57-.46c.24-.2.49-.4.76-.6l.75-.59c.24-.19.43-.34.56-.46l.08.85c-.16.15-.39.34-.67.57s-.58.48-.9.72-.61.46-.91.67a3.81,3.81,0,0,1-.75.44.7.7,0,0,1-.52.08.42.42,0,0,1-.21-.3,1.65,1.65,0,0,1,0-.54,5.13,5.13,0,0,1,.16-.65c-.12.11-.23.23-.34.34a3,3,0,0,1-.32.3l-.41.32a3.28,3.28,0,0,1-.62.37,1.75,1.75,0,0,1-.63.17.56.56,0,0,1-.49-.26,1.39,1.39,0,0,1-.14-.91,4.51,4.51,0,0,1,.34-1.22,9,9,0,0,1,.73-1.35,10.71,10.71,0,0,1,1-1.31,10,10,0,0,1,1.11-1.06,7,7,0,0,1,1.14-.75,2.89,2.89,0,0,1,1.07-.32A1.3,1.3,0,0,1,560.69,144.83Z" transform="translate(-208.69 -43.66)"/><path class="cls-1" d="M580.16,138.25a5.65,5.65,0,0,0,1.1-.46,10.34,10.34,0,0,0,1.21-.74,11.15,11.15,0,0,0,1.13-.9,6.2,6.2,0,0,0,.88-.92A1.87,1.87,0,0,0,585,134a1.35,1.35,0,0,0-.45-.91,2.92,2.92,0,0,0-1.06-.6,6.1,6.1,0,0,0-1.33-.3,9,9,0,0,0-1.93,0,13.93,13.93,0,0,0-2.12.42,19.15,19.15,0,0,0-2.18.72c-.74.29-1.45.6-2.14.95s-1.34.7-1.95,1.08a16.14,16.14,0,0,0-1.64,1.15,20.1,20.1,0,0,0-1.56,1.32,11.94,11.94,0,0,0-1.26,1.36,5,5,0,0,0-.76,1.34,1.91,1.91,0,0,0,0,1.27,2.35,2.35,0,0,0,.92,1.12,6.73,6.73,0,0,0,2.07.93l1.5.45c.53.16,1.06.35,1.58.56a14.07,14.07,0,0,1,1.52.72,7.12,7.12,0,0,1,1.33.95,4.24,4.24,0,0,1,1.15,1.53,2.93,2.93,0,0,1,.18,1.48,3.82,3.82,0,0,1-.58,1.46,11.51,11.51,0,0,1-1.11,1.46,15.39,15.39,0,0,1-1.15,1.13,14.47,14.47,0,0,1-1.31,1,10.15,10.15,0,0,1-1.41.85,8.15,8.15,0,0,1-1.47.58,6.06,6.06,0,0,1-1.66.27,4.73,4.73,0,0,1-1.5-.17,2.58,2.58,0,0,1-1.08-.6,1.39,1.39,0,0,1-.43-1,1.89,1.89,0,0,1,.28-1.05,4.62,4.62,0,0,1,.82-1,8.08,8.08,0,0,1,1.14-.9,11.25,11.25,0,0,1,1.3-.73,9.66,9.66,0,0,1,1.28-.53,6.32,6.32,0,0,1,1.08-.29l1.69.46c-.19,0-.49.14-.9.28s-.85.3-1.34.5-1,.43-1.5.68a12.08,12.08,0,0,0-1.39.79,4.91,4.91,0,0,0-1,.85,1.07,1.07,0,0,0-.3.84.83.83,0,0,0,.41.54,2.3,2.3,0,0,0,.85.29,4,4,0,0,0,1.1,0,4.4,4.4,0,0,0,1.17-.31,12.52,12.52,0,0,0,2.5-1.37,13.18,13.18,0,0,0,2.16-1.89,7.55,7.55,0,0,0,1.14-1.57,2.23,2.23,0,0,0,.26-1.34,2.34,2.34,0,0,0-.67-1.22,6.51,6.51,0,0,0-1.65-1.17,10.47,10.47,0,0,0-2.08-.85c-.7-.2-1.42-.43-2.15-.69l-1.09-.37a5.78,5.78,0,0,1-1.06-.44,3.61,3.61,0,0,1-1.52-1.4,2.58,2.58,0,0,1-.27-1.58,4.33,4.33,0,0,1,.62-1.62,11.4,11.4,0,0,1,1.16-1.53,14.94,14.94,0,0,1,1.32-1.32c.45-.39.83-.71,1.13-1a20.29,20.29,0,0,1,2.11-1.44,22.54,22.54,0,0,1,2.54-1.34,24.44,24.44,0,0,1,2.77-1.08,15.43,15.43,0,0,1,2.79-.62,11.19,11.19,0,0,1,2.58-.06,5.53,5.53,0,0,1,2.48.89,2.23,2.23,0,0,1,1,1.14,2.26,2.26,0,0,1,0,1.29,4,4,0,0,1-.6,1.27,6.23,6.23,0,0,1-.92,1.09,8.35,8.35,0,0,1-1.27,1c-.47.3-.94.56-1.41.8s-.94.45-1.4.63l-1.2.46Z" transform="translate(-208.69 -43.66)"/><path class="cls-1" d="M585.25,144.83a.48.48,0,0,1,.18.29,1.54,1.54,0,0,1,0,.43,1.79,1.79,0,0,1-.18.48,2.11,2.11,0,0,1-.32.48,2.44,2.44,0,0,1-.39.05h-.4a2.06,2.06,0,0,0,.33-.58.6.6,0,0,0,0-.42.33.33,0,0,0-.32-.16,1.46,1.46,0,0,0-.64.23L583,146c-.15.11-.31.22-.46.35s-.44.39-.65.6l-.63.66-.42.56c-.2.28-.4.59-.59.92a6.36,6.36,0,0,0-.45,1c-.11.31-.11.53,0,.67a.25.25,0,0,0,.31.06,1.64,1.64,0,0,0,.48-.28c.17-.13.36-.3.57-.49s.41-.39.61-.6.39-.42.59-.66l.56-.67.48-.62c.15-.19.27-.36.37-.5l.86.06c-.16.18-.31.38-.47.59s-.33.45-.52.68a8.76,8.76,0,0,0-.49.86,7.77,7.77,0,0,0-.42.92,1.4,1.4,0,0,0-.13.6c0,.13.14.1.38-.08l.58-.46.75-.6.76-.59c.24-.19.43-.34.56-.46l.08.85c-.16.15-.39.34-.67.57l-.9.72c-.31.24-.62.46-.92.67a3.79,3.79,0,0,1-.74.44.71.71,0,0,1-.52.08.37.37,0,0,1-.21-.3,1.41,1.41,0,0,1,0-.54,5.13,5.13,0,0,1,.16-.65c-.12.11-.23.23-.34.34a3,3,0,0,1-.32.3l-.42.32a2.92,2.92,0,0,1-.61.37,1.75,1.75,0,0,1-.63.17.55.55,0,0,1-.49-.26,1.46,1.46,0,0,1-.15-.91,4.56,4.56,0,0,1,.35-1.22,8.18,8.18,0,0,1,.73-1.35,10.71,10.71,0,0,1,1-1.31,10,10,0,0,1,1.11-1.06,7,7,0,0,1,1.14-.75,2.89,2.89,0,0,1,1.07-.32A1.26,1.26,0,0,1,585.25,144.83Z" transform="translate(-208.69 -43.66)"/><path class="cls-1" d="M591.06,144.83a.43.43,0,0,1,.17.29,1,1,0,0,1,0,.43,1.46,1.46,0,0,1-.17.48,2.16,2.16,0,0,1-.33.48,2.18,2.18,0,0,1-.38.05H590a1.79,1.79,0,0,0,.32-.58.5.5,0,0,0,0-.42.31.31,0,0,0-.31-.16,1.46,1.46,0,0,0-.64.23l-.49.31c-.15.11-.31.22-.46.35s-.44.39-.65.6l-.63.66a6.39,6.39,0,0,0-.42.56c-.2.28-.4.59-.59.92a6.36,6.36,0,0,0-.45,1c-.11.31-.11.53,0,.67a.25.25,0,0,0,.31.06,1.78,1.78,0,0,0,.48-.28c.17-.13.36-.3.57-.49s.41-.39.61-.6.39-.42.59-.66l.56-.67.48-.62c.15-.19.27-.36.37-.5l.86.06c-.16.18-.31.38-.47.59s-.33.45-.52.68a8.76,8.76,0,0,0-.49.86,7.77,7.77,0,0,0-.42.92,1.4,1.4,0,0,0-.13.6c0,.13.14.1.38-.08l.58-.46.75-.6.76-.59c.24-.19.43-.34.56-.46l.08.85-.67.57-.9.72c-.31.24-.62.46-.92.67a3.79,3.79,0,0,1-.74.44.71.71,0,0,1-.52.08.37.37,0,0,1-.21-.3,1.41,1.41,0,0,1,0-.54,5.13,5.13,0,0,1,.16-.65c-.12.11-.24.23-.34.34a3,3,0,0,1-.32.3l-.42.32a2.92,2.92,0,0,1-.61.37,1.75,1.75,0,0,1-.63.17.55.55,0,0,1-.49-.26,1.46,1.46,0,0,1-.15-.91,4.56,4.56,0,0,1,.35-1.22,8.18,8.18,0,0,1,.73-1.35,10.71,10.71,0,0,1,1-1.31,10,10,0,0,1,1.11-1.06,7,7,0,0,1,1.14-.75,2.89,2.89,0,0,1,1.07-.32A1.26,1.26,0,0,1,591.06,144.83Z" transform="translate(-208.69 -43.66)"/><path class="cls-1" d="M595.77,146.2a2,2,0,0,1,.16-.24.54.54,0,0,0,.1-.18,1.2,1.2,0,0,1,.12-.61,4.1,4.1,0,0,1,.34-.62,3.17,3.17,0,0,1,.41-.46q.23-.18.33-.15a.26.26,0,0,1,.16.18.86.86,0,0,1,0,.33,2.69,2.69,0,0,1-.1.41,1.92,1.92,0,0,1-.16.42,2.35,2.35,0,0,1-.21.39,1.3,1.3,0,0,1-.18.22.55.55,0,0,0,0,.41.29.29,0,0,0,.32.19,2.71,2.71,0,0,0,.61-.11,6.56,6.56,0,0,0,.62-.23c.21-.09.41-.19.6-.29a4.16,4.16,0,0,1,.57-.27l-.08.16-.19.33-.21.35c-.07.11-.12.17-.13.2a2.3,2.3,0,0,1-.53.37,3.09,3.09,0,0,1-.82.34,1.61,1.61,0,0,1-.81,0,.67.67,0,0,1-.48-.55c-.31.39-.63.79-1,1.2l-1,1.19-.87,1c-.27.3-.49.53-.65.69l-.44.32a2.92,2.92,0,0,1-.61.37,1.75,1.75,0,0,1-.63.17.55.55,0,0,1-.49-.26,1.7,1.7,0,0,1-.09-1.21,6.43,6.43,0,0,1,.65-1.63,17.47,17.47,0,0,1,1.3-2,15.37,15.37,0,0,1,1.62-1.89s.08,0,.2,0h.38a2.06,2.06,0,0,1,.36,0c.11,0,.16,0,.16,0a8.2,8.2,0,0,0-1,.93q-.49.56-.93,1.14c-.29.39-.55.75-.77,1.09s-.39.59-.48.74l-.31.57c-.1.19-.19.38-.27.56a2.21,2.21,0,0,0-.16.5.55.55,0,0,0,0,.36c.06.15.25.08.57-.18a10.36,10.36,0,0,0,1.13-1.11c.44-.48.9-1,1.39-1.58S595.38,146.69,595.77,146.2Z" transform="translate(-208.69 -43.66)"/><path class="cls-1" d="M597.56,149.35a3.51,3.51,0,0,0-.22.86.89.89,0,0,0,.12.63.48.48,0,0,0,.46.14,2.65,2.65,0,0,0,.68-.14,7.45,7.45,0,0,0,.82-.44c.28-.17.56-.36.85-.57l.85-.67c.29-.23.56-.46.81-.68l.14.78-1,.86a13.54,13.54,0,0,1-1.28,1,6,6,0,0,1-1.36.69,1.56,1.56,0,0,1-1.22,0,1,1,0,0,1-.61-.9,4.56,4.56,0,0,1,.15-1.59,9,9,0,0,1,.5-1.29,11.23,11.23,0,0,1,.84-1.46,7.25,7.25,0,0,1,1.08-1.25,2.81,2.81,0,0,1,1.24-.69.87.87,0,0,1,.65.09.82.82,0,0,1,.35.45,1.38,1.38,0,0,1,.05.65,1.33,1.33,0,0,1-.25.64,4.49,4.49,0,0,1-.68.76c-.29.27-.6.54-.94.8s-.69.51-1,.74S597.86,149.18,597.56,149.35Zm.9-1.85-.16.29a2,2,0,0,0-.16.29c.25-.14.51-.31.79-.5a6.77,6.77,0,0,0,.85-.66,5.22,5.22,0,0,0,.65-.72,1.17,1.17,0,0,0,.28-.67c0-.11,0-.16-.15-.17a.91.91,0,0,0-.49.21,3.12,3.12,0,0,0-.42.36c-.32.35-.56.64-.73.86S598.61,147.25,598.46,147.5Z" transform="translate(-208.69 -43.66)"/><path class="cls-1" d="M604.75,149.6c-.23.26-.46.5-.68.72l-.63.6-.42.32a3,3,0,0,1-.62.37,1.75,1.75,0,0,1-.63.17.54.54,0,0,1-.48-.26,1.39,1.39,0,0,1-.15-.91,4.51,4.51,0,0,1,.34-1.22,9,9,0,0,1,.73-1.35,10.78,10.78,0,0,1,1-1.31,7.69,7.69,0,0,1,1-1,5.76,5.76,0,0,1,1.09-.73,3.35,3.35,0,0,1,1-.36,1.39,1.39,0,0,1,.87.12c.15-.26.28-.52.41-.78s.26-.51.38-.77c.49-1,1-2,1.56-3a33.73,33.73,0,0,1,1.81-2.88l.17-.24a1.11,1.11,0,0,1,.19-.22,1.4,1.4,0,0,1,.61-.42c.21-.06.31,0,.31.13a5.8,5.8,0,0,1-.23.55L612,138c-.15.3-.3.59-.44.85s-.23.43-.27.48c-.7,1.22-1.4,2.47-2.12,3.75s-1.44,2.54-2.16,3.78l-.87,1.54a14.44,14.44,0,0,0-.79,1.63,1.45,1.45,0,0,0-.14.61c0,.13.15.11.39-.07l2.64-2.11.08.85c-.16.15-.39.34-.67.57s-.58.48-.89.72l-.92.67a3.54,3.54,0,0,1-.75.44c-.28.11-.48.12-.59,0a.59.59,0,0,1-.17-.46,2.25,2.25,0,0,1,.1-.72c.07-.28.15-.54.23-.78ZM602,150.68c.08.12.23.12.43,0a3.57,3.57,0,0,0,.71-.52c.26-.24.55-.51.84-.83s.58-.63.85-.93l.72-.84L606,147c.11-.2.21-.4.32-.59l.33-.58q0-.33-.21-.42c-.16-.06-.42,0-.77.22l-.49.31a5.07,5.07,0,0,0-.46.35,7.45,7.45,0,0,0-.65.6l-.63.66a6.39,6.39,0,0,0-.42.56c-.2.28-.4.59-.59.92a5.52,5.52,0,0,0-.45,1C601.87,150.32,601.87,150.54,602,150.68Z" transform="translate(-208.69 -43.66)"/><path class="cls-1" d="M607.93,148.68c.52-.47,1-.9,1.38-1.31a10.33,10.33,0,0,0,1.13-1.32,1.46,1.46,0,0,1,.1-.62,3.61,3.61,0,0,1,.33-.65,3,3,0,0,1,.4-.49c.14-.13.25-.18.32-.17a.23.23,0,0,1,.16.17.82.82,0,0,1,0,.32q0,.18-.09.42t-.15.42c-.08.15-.16.29-.23.4a.73.73,0,0,1-.2.2.73.73,0,0,0,.07.43.28.28,0,0,0,.32.19,1.75,1.75,0,0,0,.49-.07,1.44,1.44,0,0,0,.4-.22,1.1,1.1,0,0,0,.23-.21l.21-.21a.28.28,0,0,1,.18-.08s.08.06.09.19,0,.19,0,.27a1.36,1.36,0,0,1,0,.33c-.2.29-.42.59-.66.88l-.74.88-.73.92a7.61,7.61,0,0,0-.61,1,1.34,1.34,0,0,0-.18.39.36.36,0,0,0,0,.27c0,.06.09.09.19.08a1,1,0,0,0,.41-.16,7,7,0,0,0,.78-.58c.3-.25.59-.49.87-.75l.77-.69.46-.42.07.85-.45.44-.77.69c-.29.25-.6.5-.91.75a8.72,8.72,0,0,1-.87.58,1.58,1.58,0,0,1-.59.16.66.66,0,0,1-.45-.12.79.79,0,0,1-.28-.44,1.83,1.83,0,0,1,0-.74,4.47,4.47,0,0,1,.41-1,9.46,9.46,0,0,1,.59-.91c.22-.28.45-.54.67-.79s.43-.45.62-.64a.9.9,0,0,1-.73.23.57.57,0,0,1-.37-.48l-.61.65c-.19.2-.38.4-.58.59l-.64.6-.75.67Z" transform="translate(-208.69 -43.66)"/><path class="cls-1" d="M619.06,144.83a.43.43,0,0,1,.17.29,1,1,0,0,1,0,.43,1.46,1.46,0,0,1-.17.48,2.56,2.56,0,0,1-.33.48,2.32,2.32,0,0,1-.38.05h-.41a1.66,1.66,0,0,0,.33-.58.5.5,0,0,0,0-.42.31.31,0,0,0-.32-.16,1.39,1.39,0,0,0-.63.23l-.49.31a5.07,5.07,0,0,0-.46.35,7.45,7.45,0,0,0-.65.6l-.63.66a6.39,6.39,0,0,0-.42.56c-.2.28-.4.59-.59.92a6.36,6.36,0,0,0-.45,1c-.11.31-.11.53,0,.67s.17.11.31.06a1.78,1.78,0,0,0,.48-.28c.17-.13.36-.3.57-.49s.41-.39.61-.6.39-.42.59-.66l.56-.67.48-.62c.15-.19.27-.36.37-.5l.85.06-.47.59c-.15.22-.33.45-.51.68a7.1,7.1,0,0,0-.49.86,7.77,7.77,0,0,0-.42.92,1.26,1.26,0,0,0-.13.6c0,.13.14.1.38-.08l.58-.46.75-.6.76-.59c.24-.19.42-.34.55-.46l.09.85c-.17.15-.39.34-.68.57s-.58.48-.89.72-.62.46-.92.67a3.54,3.54,0,0,1-.75.44.68.68,0,0,1-.51.08.41.41,0,0,1-.22-.3,1.44,1.44,0,0,1,0-.54,5.13,5.13,0,0,1,.16-.65,3.63,3.63,0,0,0-.34.34c-.11.11-.21.21-.32.3l-.42.32a3,3,0,0,1-.62.37,1.65,1.65,0,0,1-.63.17.54.54,0,0,1-.48-.26,1.46,1.46,0,0,1-.15-.91,4.22,4.22,0,0,1,.35-1.22,7.5,7.5,0,0,1,.73-1.35,10.71,10.71,0,0,1,1-1.31,10,10,0,0,1,1.11-1.06,6.2,6.2,0,0,1,1.14-.75,2.85,2.85,0,0,1,1.06-.32A1.29,1.29,0,0,1,619.06,144.83Z" transform="translate(-208.69 -43.66)"/><path class="cls-1" d="M255.82,99.93V64.34a2.79,2.79,0,0,0-.5-1.74,2.27,2.27,0,0,0-1.89-.65V60.76h11.93V62a2.27,2.27,0,0,0-1.89.65,2.79,2.79,0,0,0-.5,1.74v45.13a2.79,2.79,0,0,0,.5,1.74,2.27,2.27,0,0,0,1.89.65v1.19H252.64v-1.19c1.32,0,2-.27,2-.8a1.68,1.68,0,0,0-.39-1.14,6.46,6.46,0,0,1-.6-.75L218.24,68.91v40.56a2.79,2.79,0,0,0,.49,1.74,2.27,2.27,0,0,0,1.89.65v1.19H208.69v-1.19a2.27,2.27,0,0,0,1.89-.65,2.79,2.79,0,0,0,.5-1.74V64.34a2.79,2.79,0,0,0-.5-1.74,2.27,2.27,0,0,0-1.89-.65V60.76h16.8V62a3,3,0,0,0-1.49.25.92.92,0,0,0-.4.84,1.18,1.18,0,0,0,.25.65,5.72,5.72,0,0,0,.55.65l31.22,35.59Z" transform="translate(-208.69 -43.66)"/><path class="cls-1" d="M283.85,64.34a2.73,2.73,0,0,0-.5-1.74,2.26,2.26,0,0,0-1.88-.65V60.76h41.65a7.32,7.32,0,0,0,3.28-.45,1.7,1.7,0,0,0,.7-1.54h1.19V70.1H327.1a2.67,2.67,0,0,0-.8-2,4.68,4.68,0,0,0-3.08-.74h-31V83h20.18a6.33,6.33,0,0,0,2.94-.6,2.25,2.25,0,0,0,1.14-2.19h1.19v12h-1.19a2.35,2.35,0,0,0-.89-2.09,5.72,5.72,0,0,0-3-.59H292.2v16.9h33.21a5.12,5.12,0,0,0,3.08-.75,3.08,3.08,0,0,0,1-2.63h1.2v11.83h-1.2c0-1.26-1.16-1.89-3.47-1.89H281.47v-1.19a2.26,2.26,0,0,0,1.88-.65,2.73,2.73,0,0,0,.5-1.74Zm16-7,11-13.72h7.66L304.93,57.38Z" transform="translate(-208.69 -43.66)"/><path class="cls-1" d="M343.8,111.86a2.59,2.59,0,0,0,2.09-.65,2.79,2.79,0,0,0,.49-1.74V64.34a2.62,2.62,0,0,0-.54-1.74A2.92,2.92,0,0,0,343.6,62V60.76h16.8V62c-1.52,0-2.29.43-2.29,1.29a1.77,1.77,0,0,0,.4,1.1l16.21,31.81,16.8-31.81a3.82,3.82,0,0,1,.25-.6,1.33,1.33,0,0,0,.15-.6,1,1,0,0,0-.55-.84,3.87,3.87,0,0,0-1.94-.35V60.76h17.8V62a2.9,2.9,0,0,0-2.24.65,2.63,2.63,0,0,0-.55,1.74v45.13a2.63,2.63,0,0,0,.55,1.74,2.9,2.9,0,0,0,2.24.65v1.19H393.31v-1.19a2.92,2.92,0,0,0,2.24-.65,2.62,2.62,0,0,0,.54-1.74V70.2l-.3-.2-21.17,42.06L353.44,70l-.1.2v39.27a2.44,2.44,0,0,0,.4,1.74,2.27,2.27,0,0,0,1.89.65v1.19H343.8Z" transform="translate(-208.69 -43.66)"/><path class="cls-1" d="M425,64.34a2.73,2.73,0,0,0-.5-1.74,2.26,2.26,0,0,0-1.88-.65V60.76h41.65a7.32,7.32,0,0,0,3.28-.45,1.68,1.68,0,0,0,.7-1.54h1.19V70.1h-1.19a2.67,2.67,0,0,0-.8-2,4.68,4.68,0,0,0-3.08-.74h-31V83h20.18a6.3,6.3,0,0,0,2.94-.6,2.25,2.25,0,0,0,1.14-2.19h1.19v12h-1.19a2.35,2.35,0,0,0-.89-2.09,5.72,5.72,0,0,0-3-.59H433.37v16.9h33.21a5.12,5.12,0,0,0,3.08-.75,3.08,3.08,0,0,0,1-2.63h1.2v11.83h-1.2c0-1.26-1.16-1.89-3.47-1.89H422.64v-1.19a2.26,2.26,0,0,0,1.88-.65,2.73,2.73,0,0,0,.5-1.74Z" transform="translate(-208.69 -43.66)"/><path class="cls-1" d="M488.84,97.34a3.49,3.49,0,0,0-.29,1.29,4.06,4.06,0,0,0,1.74,2.89,18.45,18.45,0,0,0,4.57,2.73,34.74,34.74,0,0,0,6.41,2,33.44,33.44,0,0,0,7.26.8q9.45,0,13.67-2.79c2.82-1.85,4.22-4.24,4.22-7.16a5.62,5.62,0,0,0-1-3.48,6.65,6.65,0,0,0-2.88-2.13,16.77,16.77,0,0,0-4.28-1,42.69,42.69,0,0,0-5.22-.3c-3.05,0-6.28,0-9.69-.05a34.53,34.53,0,0,1-9.39-1.29,15.61,15.61,0,0,1-7.06-4.12q-2.79-2.89-2.79-8.55a11.35,11.35,0,0,1,2-6.52,17.41,17.41,0,0,1,5.42-5,29.88,29.88,0,0,1,8.1-3.28,41.23,41.23,0,0,1,10.14-1.19,39.92,39.92,0,0,1,7.41.6,52.09,52.09,0,0,1,5.42,1.29c1.52.46,2.78.89,3.77,1.29a7,7,0,0,0,2.49.6,2.51,2.51,0,0,0,1.59-.4,13.08,13.08,0,0,0,1-.89l1.19.49-5.47,11.44-1.09-.7a5.47,5.47,0,0,0,.1-1.29c0-.47-.4-1-1.2-1.69A14,14,0,0,0,521.55,69a28,28,0,0,0-5.22-1.59,31.73,31.73,0,0,0-6.61-.65q-8.06,0-12.77,2.59t-4.72,6.76a4.29,4.29,0,0,0,1,3,6.86,6.86,0,0,0,2.88,1.79,17.09,17.09,0,0,0,4.28.84c1.62.14,3.36.2,5.22.2q4.67,0,9.74.15a33.5,33.5,0,0,1,9.34,1.54,15.91,15.91,0,0,1,7.06,4.48c1.86,2.05,2.79,5.07,2.79,9a12.4,12.4,0,0,1-1.64,6.12,16.14,16.14,0,0,1-4.92,5.22,25.8,25.8,0,0,1-8.11,3.58,43.44,43.44,0,0,1-11.18,1.29,44.27,44.27,0,0,1-9.3-.85,40,40,0,0,1-6.71-2c-1.85-.77-3.38-1.46-4.57-2.09a6.67,6.67,0,0,0-2.88-1,3,3,0,0,0-2.09,1.2l-1-.6,5.37-11.43Z" transform="translate(-208.69 -43.66)"/><path class="cls-1" d="M547.5,111.86a2.27,2.27,0,0,0,1.89-.65,2.79,2.79,0,0,0,.5-1.74V64.34a2.79,2.79,0,0,0-.5-1.74A2.27,2.27,0,0,0,547.5,62V60.76h13.12V62a2.25,2.25,0,0,0-1.88.65,2.73,2.73,0,0,0-.5,1.74v45.13a2.73,2.73,0,0,0,.5,1.74,2.25,2.25,0,0,0,1.88.65v1.19H547.5Z" transform="translate(-208.69 -43.66)"/><path class="cls-1" d="M580.31,97.34a3.33,3.33,0,0,0-.3,1.29,4.06,4.06,0,0,0,1.74,2.89,18.45,18.45,0,0,0,4.57,2.73,34.61,34.61,0,0,0,6.42,2,33.28,33.28,0,0,0,7.25.8q9.45,0,13.67-2.79t4.23-7.16a5.62,5.62,0,0,0-1-3.48A6.53,6.53,0,0,0,614,91.53a16.79,16.79,0,0,0-4.27-1,42.93,42.93,0,0,0-5.22-.3c-3.05,0-6.28,0-9.7-.05a34.59,34.59,0,0,1-9.39-1.29,15.67,15.67,0,0,1-7.06-4.12c-1.86-1.93-2.78-4.78-2.78-8.55a11.41,11.41,0,0,1,2-6.52,17.52,17.52,0,0,1,5.42-5,29.82,29.82,0,0,1,8.11-3.28,41.11,41.11,0,0,1,10.14-1.19,39.88,39.88,0,0,1,7.4.6A52.09,52.09,0,0,1,614,62.05q2.28.69,3.78,1.29a6.93,6.93,0,0,0,2.48.6,2.51,2.51,0,0,0,1.59-.4,10.14,10.14,0,0,0,1-.89l1.19.49-5.47,11.44-1.09-.7a5,5,0,0,0,.1-1.29c0-.47-.4-1-1.19-1.69A14.39,14.39,0,0,0,613,69a28,28,0,0,0-5.22-1.59,31.86,31.86,0,0,0-6.61-.65q-8.06,0-12.78,2.59t-4.72,6.76a4.34,4.34,0,0,0,1,3,7,7,0,0,0,2.89,1.79,17,17,0,0,0,4.27.84c1.62.14,3.36.2,5.22.2q4.67,0,9.74.15a33.57,33.57,0,0,1,9.35,1.54,16,16,0,0,1,7.06,4.48c1.85,2.05,2.78,5.07,2.78,9a12.4,12.4,0,0,1-1.64,6.12,15.93,15.93,0,0,1-4.92,5.22,25.84,25.84,0,0,1-8.1,3.58,43.57,43.57,0,0,1-11.19,1.29,44.11,44.11,0,0,1-9.29-.85,39.68,39.68,0,0,1-6.71-2c-1.86-.77-3.38-1.46-4.58-2.09a6.67,6.67,0,0,0-2.88-1,3,3,0,0,0-2.09,1.2l-1-.6L579,96.65Z" transform="translate(-208.69 -43.66)"/></svg>